<svg width="40" height="40" viewBox="0 0 40 40" fill="none" xmlns="http://www.w3.org/2000/svg">
<path d="M8.61116 31.6667C7.43505 31.6667 6.51838 31.2663 5.86116 30.4655C5.20366 29.6643 4.96283 28.611 5.13866 27.3055L7.05533 13.8334C7.28699 12.2964 7.9931 10.9955 9.17366 9.93046C10.3542 8.86574 11.713 8.33337 13.2499 8.33337H30.7778C32.3148 8.33337 33.6735 8.86574 34.8541 9.93046C36.0346 10.9955 36.7406 12.2964 36.972 13.8334L38.8612 27.3055C39.037 28.611 38.7962 29.6643 38.1387 30.4655C37.4814 31.2663 36.5648 31.6667 35.3887 31.6667C34.7684 31.6667 34.2267 31.5625 33.7637 31.3542C33.3009 31.1459 32.8981 30.8705 32.5553 30.528L28.4166 26.3888H15.5832L11.4445 30.528C11.1017 30.8705 10.6989 31.1459 10.2362 31.3542C9.7731 31.5625 9.23144 31.6667 8.61116 31.6667ZM9.33324 28.6946L14.4166 23.6113H29.5832L34.6666 28.6946C34.7777 28.8057 35.0184 28.9168 35.3887 29.028C35.6573 29.028 35.8634 28.9145 36.007 28.6875C36.1503 28.4606 36.1942 28.213 36.1387 27.9446L34.1945 14.25C34.0648 13.3334 33.6712 12.581 33.0137 11.993C32.3564 11.4052 31.6112 11.1113 30.7778 11.1113H13.222C12.3887 11.1113 11.6434 11.4052 10.9862 11.993C10.3287 12.581 9.93505 13.3334 9.80533 14.25L7.86116 27.9446C7.8056 28.213 7.84949 28.4606 7.99283 28.6875C8.13644 28.9145 8.34255 29.028 8.61116 29.028C8.75921 29.028 8.99991 28.9168 9.33324 28.6946ZM30.8887 21.6667C31.3425 21.6667 31.7338 21.5024 32.0624 21.1738C32.391 20.8449 32.5553 20.4537 32.5553 20C32.5553 19.5464 32.391 19.1552 32.0624 18.8263C31.7338 18.4977 31.3425 18.3334 30.8887 18.3334C30.435 18.3334 30.0439 18.4977 29.7153 18.8263C29.3864 19.1552 29.222 19.5464 29.222 20C29.222 20.4537 29.3864 20.8449 29.7153 21.1738C30.0439 21.5024 30.435 21.6667 30.8887 21.6667ZM27.4166 16.3888C27.8702 16.3888 28.2614 16.2245 28.5903 15.8959C28.9189 15.5673 29.0832 15.176 29.0832 14.7221C29.0832 14.2685 28.9189 13.8774 28.5903 13.5488C28.2614 13.2199 27.8702 13.0555 27.4166 13.0555C26.963 13.0555 26.5717 13.2199 26.2428 13.5488C25.9142 13.8774 25.7499 14.2685 25.7499 14.7221C25.7499 15.176 25.9142 15.5673 26.2428 15.8959C26.5717 16.2245 26.963 16.3888 27.4166 16.3888ZM14.6387 21.528H16.8612V18.4721H19.9166V16.25H16.8612V13.1946H14.6387V16.25H11.5832V18.4721H14.6387V21.528Z" fill="#02FFFF"/>
<path d="M4.61116 31.6667C3.43505 31.6667 2.51838 31.2663 1.86116 30.4655C1.20366 29.6643 0.962826 28.611 1.13866 27.3055L3.05533 13.8334C3.28699 12.2964 3.9931 10.9955 5.17366 9.93046C6.35421 8.86574 7.71297 8.33337 9.24991 8.33337H26.7778C28.3148 8.33337 29.6735 8.86574 30.8541 9.93046C32.0346 10.9955 32.7406 12.2964 32.972 13.8334L34.8612 27.3055C35.037 28.611 34.7962 29.6643 34.1387 30.4655C33.4814 31.2663 32.5648 31.6667 31.3887 31.6667C30.7684 31.6667 30.2267 31.5625 29.7637 31.3542C29.3009 31.1459 28.8981 30.8705 28.5553 30.528L24.4166 26.3888H11.5832L7.44449 30.528C7.10171 30.8705 6.69894 31.1459 6.23616 31.3542C5.7731 31.5625 5.23144 31.6667 4.61116 31.6667ZM5.33324 28.6946L10.4166 23.6113H25.5832L30.6666 28.6946C30.7777 28.8057 31.0184 28.9168 31.3887 29.028C31.6573 29.028 31.8634 28.9145 32.007 28.6875C32.1503 28.4606 32.1942 28.213 32.1387 27.9446L30.1945 14.25C30.0648 13.3334 29.6712 12.581 29.0137 11.993C28.3564 11.4052 27.6112 11.1113 26.7778 11.1113H9.22199C8.38866 11.1113 7.64338 11.4052 6.98616 11.993C6.32866 12.581 5.93505 13.3334 5.80533 14.25L3.86116 27.9446C3.8056 28.213 3.84949 28.4606 3.99283 28.6875C4.13644 28.9145 4.34255 29.028 4.61116 29.028C4.75921 29.028 4.99991 28.9168 5.33324 28.6946ZM26.8887 21.6667C27.3425 21.6667 27.7338 21.5024 28.0624 21.1738C28.391 20.8449 28.5553 20.4537 28.5553 20C28.5553 19.5464 28.391 19.1552 28.0624 18.8263C27.7338 18.4977 27.3425 18.3334 26.8887 18.3334C26.435 18.3334 26.0439 18.4977 25.7153 18.8263C25.3864 19.1552 25.222 19.5464 25.222 20C25.222 20.4537 25.3864 20.8449 25.7153 21.1738C26.0439 21.5024 26.435 21.6667 26.8887 21.6667ZM23.4166 16.3888C23.8702 16.3888 24.2614 16.2245 24.5903 15.8959C24.9189 15.5673 25.0832 15.176 25.0832 14.7221C25.0832 14.2685 24.9189 13.8774 24.5903 13.5488C24.2614 13.2199 23.8702 13.0555 23.4166 13.0555C22.963 13.0555 22.5717 13.2199 22.2428 13.5488C21.9142 13.8774 21.7499 14.2685 21.7499 14.7221C21.7499 15.176 21.9142 15.5673 22.2428 15.8959C22.5717 16.2245 22.963 16.3888 23.4166 16.3888ZM10.6387 21.528H12.8612V18.4721H15.9166V16.25H12.8612V13.1946H10.6387V16.25H7.58324V18.4721H10.6387V21.528Z" fill="#FF3332"/>
<path d="M6.61116 31.6667C5.43505 31.6667 4.51838 31.2663 3.86116 30.4655C3.20366 29.6643 2.96283 28.611 3.13866 27.3055L5.05533 13.8334C5.28699 12.2964 5.9931 10.9955 7.17366 9.93046C8.35421 8.86574 9.71297 8.33337 11.2499 8.33337H28.7778C30.3148 8.33337 31.6735 8.86574 32.8541 9.93046C34.0346 10.9955 34.7406 12.2964 34.972 13.8334L36.8612 27.3055C37.037 28.611 36.7962 29.6643 36.1387 30.4655C35.4814 31.2663 34.5648 31.6667 33.3887 31.6667C32.7684 31.6667 32.2267 31.5625 31.7637 31.3542C31.3009 31.1459 30.8981 30.8705 30.5553 30.528L26.4166 26.3888H13.5832L9.44449 30.528C9.10171 30.8705 8.69894 31.1459 8.23616 31.3542C7.7731 31.5625 7.23144 31.6667 6.61116 31.6667Z" fill="#F5F5F7"/>
<path d="M28.8887 21.6667C29.3426 21.6667 29.7338 21.5024 30.0624 21.1738C30.391 20.8449 30.5553 20.4536 30.5553 20C30.5553 19.5464 30.391 19.1551 30.0624 18.8263C29.7338 18.4976 29.3426 18.3333 28.8887 18.3333C28.4351 18.3333 28.0439 18.4976 27.7153 18.8263C27.3864 19.1551 27.222 19.5464 27.222 20C27.222 20.4536 27.3864 20.8449 27.7153 21.1738C28.0439 21.5024 28.4351 21.6667 28.8887 21.6667ZM25.4166 16.3888C25.8702 16.3888 26.2614 16.2244 26.5903 15.8958C26.9189 15.5672 27.0833 15.176 27.0833 14.7221C27.0833 14.2685 26.9189 13.8774 26.5903 13.5488C26.2614 13.2199 25.8702 13.0554 25.4166 13.0554C24.963 13.0554 24.5717 13.2199 24.2428 13.5488C23.9142 13.8774 23.7499 14.2685 23.7499 14.7221C23.7499 15.176 23.9142 15.5672 24.2428 15.8958C24.5717 16.2244 24.963 16.3888 25.4166 16.3888ZM12.6387 21.5279H14.8612V18.4721H17.9166V16.25H14.8612V13.1946H12.6387V16.25H9.58325V18.4721H12.6387V21.5279Z" fill="black"/>
</svg>
