<svg width="1024" height="1024" viewBox="0 0 1024 1024" fill="none" xmlns="http://www.w3.org/2000/svg">
    <style>
        .icon-color { fill: black; }
        @media (prefers-color-scheme: dark) {
        .icon-color { fill: white; }
        }
    </style>
    <path d="M0 368C298.667 69.3333 725.334 69.3333 1024 368C970.63 421.37 922.783 469.136 879.958 511.958L819.625 451.625C844.666 426.582 871.434 399.858 900 371.292C662.886 181.983 361.068 181.969 123.958 371.292L193.667 441L133.333 501.333L0 368Z"
          fill="#ACACAC"/>
    <path d="M735.958 655.958C632.433 759.472 512 880 512 880L368 736L428.333 675.667L512 759.334C510.754 760.579 513.198 758.136 512 759.334C544.869 726.465 598.249 673.013 673.542 597.708L735.958 655.958Z"
          fill="#06BF00"/>
    <path class="icon-color" d="M870.868 784.001C889.336 784.001 905.256 777.488 918.627 764.463C931.998 751.426 938.683 735.918 938.683 717.938C938.683 699.957 931.998 684.449 918.627 671.412C905.256 658.387 889.336 651.874 870.868 651.874C852.411 651.874 836.497 658.387 823.126 671.412C809.744 684.449 803.053 699.957 803.053 717.938C803.053 735.918 809.744 751.426 823.126 764.463C836.497 777.488 852.411 784.001 870.868 784.001ZM729.592 574.795C748.049 574.795 763.969 568.282 777.351 555.256C790.722 542.231 797.407 526.722 797.407 508.731C797.407 490.751 790.722 475.248 777.351 462.222C763.969 449.186 748.049 442.668 729.592 442.668C711.135 442.668 695.216 449.186 681.834 462.222C668.463 475.248 661.777 490.751 661.777 508.731C661.777 526.722 668.463 542.231 681.834 555.256C695.216 568.282 711.135 574.795 729.592 574.795ZM209.671 778.501H300.103V657.374H424.425V569.295H300.103V448.184H209.671V569.295H85.3496V657.374H209.671V778.501Z"/>
</svg>
