<svg width="40" height="40" viewBox="0 0 40 40" fill="none" xmlns="http://www.w3.org/2000/svg">
<rect x="7" y="5" width="30" height="19" rx="5" fill="#02FFFF"/>
<rect x="3" y="5" width="30" height="19" rx="5" fill="#FF3332"/>
<rect x="5" y="5" width="30" height="19" rx="5" fill="#F5F5F7"/>
<path d="M28.8887 18.6667C29.3426 18.6667 29.7338 18.5024 30.0624 18.1738C30.391 17.8449 30.5553 17.4536 30.5553 17C30.5553 16.5464 30.391 16.1551 30.0624 15.8263C29.7338 15.4976 29.3426 15.3333 28.8887 15.3333C28.4351 15.3333 28.0439 15.4976 27.7153 15.8263C27.3864 16.1551 27.222 16.5464 27.222 17C27.222 17.4536 27.3864 17.8449 27.7153 18.1738C28.0439 18.5024 28.4351 18.6667 28.8887 18.6667ZM25.4166 13.3888C25.8702 13.3888 26.2614 13.2244 26.5903 12.8958C26.9189 12.5672 27.0833 12.176 27.0833 11.7221C27.0833 11.2685 26.9189 10.8774 26.5903 10.5488C26.2614 10.2199 25.8702 10.0554 25.4166 10.0554C24.963 10.0554 24.5717 10.2199 24.2428 10.5488C23.9142 10.8774 23.7499 11.2685 23.7499 11.7221C23.7499 12.176 23.9142 12.5672 24.2428 12.8958C24.5717 13.2244 24.963 13.3888 25.4166 13.3888ZM12.6387 18.5279H14.8612V15.4721H17.9166V13.25H14.8612V10.1946H12.6387V13.25H9.58325V15.4721H12.6387V18.5279Z" fill="black"/>
<path d="M7.28911 29.107V29.9251H4.73713V29.107H7.28911ZM4.8631 29.107V34.893H4V29.107H4.8631ZM8.05423 29.107V34.893H7.18647V29.107H8.05423Z" fill="#F5F5F7"/>
<path d="M9.21126 32.0642V31.9412C9.21126 31.5241 9.26413 31.1373 9.36988 30.7807C9.47563 30.4207 9.62803 30.1087 9.82709 29.8449C10.0261 29.5775 10.2672 29.3708 10.5502 29.2246C10.8333 29.0749 11.1505 29 11.502 29C11.8565 29 12.1753 29.0749 12.4584 29.2246C12.7445 29.3708 12.9871 29.5775 13.1862 29.8449C13.3883 30.1087 13.5423 30.4207 13.6481 30.7807C13.7538 31.1373 13.8067 31.5241 13.8067 31.9412V32.0642C13.8067 32.4813 13.7538 32.8681 13.6481 33.2246C13.5423 33.5811 13.3883 33.893 13.1862 34.1604C12.9871 34.4242 12.7461 34.631 12.463 34.7807C12.1831 34.9269 11.8659 35 11.5113 35C11.1567 35 10.8379 34.9269 10.5549 34.7807C10.2719 34.631 10.0293 34.4242 9.82709 34.1604C9.62803 33.893 9.47563 33.5811 9.36988 33.2246C9.26413 32.8681 9.21126 32.4813 9.21126 32.0642ZM10.0744 31.9412V32.0642C10.0744 32.3529 10.1039 32.6257 10.163 32.8824C10.2221 33.1355 10.3107 33.3601 10.4289 33.5561C10.5502 33.7522 10.7011 33.9073 10.8815 34.0214C11.0619 34.1319 11.2718 34.1872 11.5113 34.1872C11.7477 34.1872 11.9545 34.1319 12.1318 34.0214C12.3122 33.9073 12.4615 33.7522 12.5797 33.5561C12.6979 33.3601 12.7865 33.1355 12.8456 32.8824C12.9078 32.6257 12.9389 32.3529 12.9389 32.0642V31.9412C12.9389 31.656 12.9078 31.3868 12.8456 31.1337C12.7865 30.877 12.6963 30.6506 12.575 30.4545C12.4568 30.2549 12.3075 30.098 12.1271 29.984C11.9498 29.8699 11.7415 29.8128 11.502 29.8128C11.2656 29.8128 11.0572 29.8699 10.8768 29.984C10.6995 30.098 10.5502 30.2549 10.4289 30.4545C10.3107 30.6506 10.2221 30.877 10.163 31.1337C10.1039 31.3868 10.0744 31.656 10.0744 31.9412Z" fill="#F5F5F7"/>
<path d="M19.2792 34.1872C19.4845 34.1872 19.6742 34.139 19.8484 34.0428C20.0225 33.9465 20.1656 33.8146 20.2776 33.6471C20.3896 33.4759 20.4533 33.2816 20.4689 33.0642H21.29C21.2744 33.4064 21.1733 33.7255 20.9867 34.0214C20.8032 34.3137 20.5622 34.5508 20.2636 34.7326C19.965 34.9109 19.6369 35 19.2792 35C18.8997 35 18.5685 34.9234 18.2855 34.7701C18.0055 34.6168 17.7723 34.4064 17.5857 34.139C17.4021 33.8717 17.2637 33.5651 17.1704 33.2193C17.0802 32.8699 17.0351 32.5009 17.0351 32.1123V31.8877C17.0351 31.4991 17.0802 31.1319 17.1704 30.7861C17.2637 30.4367 17.4021 30.1283 17.5857 29.861C17.7723 29.5936 18.0055 29.3832 18.2855 29.2299C18.5685 29.0766 18.8997 29 19.2792 29C19.6742 29 20.0194 29.0927 20.3149 29.2781C20.6104 29.4599 20.8421 29.7094 21.0101 30.0267C21.1811 30.3405 21.2744 30.697 21.29 31.0963H20.4689C20.4533 30.8574 20.3942 30.6417 20.2916 30.4492C20.1921 30.2567 20.0552 30.1034 19.881 29.9893C19.71 29.8717 19.5094 29.8128 19.2792 29.8128C19.0148 29.8128 18.7924 29.8734 18.612 29.9947C18.4348 30.1123 18.2932 30.2727 18.1875 30.4759C18.0849 30.6756 18.0102 30.8984 17.9636 31.1444C17.92 31.3868 17.8982 31.6346 17.8982 31.8877V32.1123C17.8982 32.3654 17.92 32.615 17.9636 32.861C18.0071 33.107 18.0802 33.3298 18.1828 33.5294C18.2886 33.7291 18.4301 33.8895 18.6074 34.0107C18.7878 34.1283 19.0117 34.1872 19.2792 34.1872Z" fill="#F5F5F7"/>
<path d="M24.3552 35C24.0037 35 23.6849 34.9323 23.3987 34.7968C23.1157 34.6578 22.8716 34.4635 22.6663 34.2139C22.4641 33.9643 22.3086 33.6684 22.1997 33.3262C22.0909 32.984 22.0364 32.6096 22.0364 32.2032V31.9786C22.0364 31.508 22.0971 31.0891 22.2184 30.7219C22.3397 30.3512 22.5045 30.0374 22.7129 29.7807C22.9213 29.5241 23.1577 29.3298 23.4221 29.1979C23.6864 29.066 23.9601 29 24.2432 29C24.604 29 24.915 29.0713 25.1763 29.2139C25.4406 29.3565 25.6568 29.5561 25.8248 29.8128C25.9927 30.066 26.1171 30.3654 26.198 30.7112C26.2789 31.0535 26.3193 31.4278 26.3193 31.8342V32.2781H22.5496V31.4706H25.4562V31.3957C25.4437 31.139 25.3971 30.8895 25.3162 30.6471C25.2385 30.4046 25.1141 30.205 24.943 30.0481C24.7719 29.8913 24.5387 29.8128 24.2432 29.8128C24.0472 29.8128 23.8668 29.861 23.702 29.9572C23.5372 30.0499 23.3956 30.1889 23.2774 30.3743C23.1593 30.5597 23.0675 30.7861 23.0022 31.0535C22.9369 31.3209 22.9042 31.6292 22.9042 31.9786V32.2032C22.9042 32.4777 22.9369 32.7362 23.0022 32.9786C23.0706 33.2175 23.1686 33.4278 23.2961 33.6096C23.4267 33.7914 23.5838 33.934 23.7673 34.0374C23.9539 34.1408 24.1654 34.1925 24.4018 34.1925C24.7066 34.1925 24.9648 34.1212 25.1763 33.9786C25.3878 33.836 25.5728 33.6453 25.7314 33.4064L26.254 33.8824C26.1451 34.0713 26.0067 34.2513 25.8388 34.4225C25.6708 34.5936 25.464 34.7326 25.2183 34.8396C24.9757 34.9465 24.688 35 24.3552 35Z" fill="#F5F5F7"/>
<path d="M29.3285 29.107V34.893H28.4607V29.107H29.3285ZM31.022 29.107V29.9091H26.7998V29.107H31.022Z" fill="#F5F5F7"/>
<path d="M32.8042 33.3262L35.1322 29.107H36V34.893H35.1322V30.6738L32.8042 34.893H31.9458V29.107H32.8042V33.3262Z" fill="#F5F5F7"/>
</svg>
