<svg width="520" height="440" viewBox="0 0 520 440" fill="none" xmlns="http://www.w3.org/2000/svg">
<rect x="260.5" y="0.5" width="259" height="439" rx="11.5" fill="url(#paint0_linear_622_759)" stroke="black"/>
<rect x="0.5" y="0.5" width="259" height="439" rx="11.5" fill="url(#paint1_linear_622_759)" stroke="black"/>
<rect x="10" y="10" width="240" height="420" rx="6" fill="#FFF0DD"/>
<rect x="270" y="10" width="240" height="420" rx="6" fill="#FFF0DD"/>
<path d="M70 14C78.8366 14 86 21.1634 86 30C86 31.0259 85.9013 32.0288 85.7168 33.001L70 200L54.2822 33.001C54.0977 32.0288 54 31.0258 54 30C54 21.1634 61.1634 14 70 14Z" fill="#B58863"/>
<path d="M30 14C38.8366 14 46 21.1634 46 30C46 31.0259 45.9013 32.0288 45.7168 33.001L30 200L14.2822 33.001C14.0977 32.0288 14 31.0258 14 30C14 21.1634 21.1634 14 30 14Z" fill="#D8C2A2"/>
<path d="M230 14C238.837 14 246 21.1634 246 30C246 31.0259 245.901 32.0288 245.717 33.001L230 200L214.282 33.001C214.098 32.0288 214 31.0258 214 30C214 21.1634 221.163 14 230 14Z" fill="#B58863"/>
<path d="M190 14C198.837 14 206 21.1634 206 30C206 31.0259 205.901 32.0288 205.717 33.001L190 200L174.282 33.001C174.098 32.0288 174 31.0258 174 30C174 21.1634 181.163 14 190 14Z" fill="#D8C2A2"/>
<path d="M150 14C158.837 14 166 21.1634 166 30C166 31.0259 165.901 32.0288 165.717 33.001L150 200L134.282 33.001C134.098 32.0288 134 31.0258 134 30C134 21.1634 141.163 14 150 14Z" fill="#B58863"/>
<path d="M110 14C118.837 14 126 21.1634 126 30C126 31.0259 125.901 32.0288 125.717 33.001L110 200L94.2822 33.001C94.0977 32.0288 94 31.0258 94 30C94 21.1634 101.163 14 110 14Z" fill="#D8C2A2"/>
<path d="M330 14C338.837 14 346 21.1634 346 30C346 31.0259 345.901 32.0288 345.717 33.001L330 200L314.282 33.001C314.098 32.0288 314 31.0258 314 30C314 21.1634 321.163 14 330 14Z" fill="#B58863"/>
<path d="M290 14C298.837 14 306 21.1634 306 30C306 31.0259 305.901 32.0288 305.717 33.001L290 200L274.282 33.001C274.098 32.0288 274 31.0258 274 30C274 21.1634 281.163 14 290 14Z" fill="#D8C2A2"/>
<path d="M490 14C498.837 14 506 21.1634 506 30C506 31.0259 505.901 32.0288 505.717 33.001L490 200L474.282 33.001C474.098 32.0288 474 31.0258 474 30C474 21.1634 481.163 14 490 14Z" fill="#B58863"/>
<path d="M450 14C458.837 14 466 21.1634 466 30C466 31.0259 465.901 32.0288 465.717 33.001L450 200L434.282 33.001C434.098 32.0288 434 31.0258 434 30C434 21.1634 441.163 14 450 14Z" fill="#D8C2A2"/>
<path d="M410 14C418.837 14 426 21.1634 426 30C426 31.0259 425.901 32.0288 425.717 33.001L410 200L394.282 33.001C394.098 32.0288 394 31.0258 394 30C394 21.1634 401.163 14 410 14Z" fill="#B58863"/>
<path d="M370 14C378.837 14 386 21.1634 386 30C386 31.0259 385.901 32.0288 385.717 33.001L370 200L354.282 33.001C354.098 32.0288 354 31.0258 354 30C354 21.1634 361.163 14 370 14Z" fill="#D8C2A2"/>
<path d="M450 426C441.163 426 434 418.837 434 410C434 408.974 434.099 407.971 434.283 406.999L450 240L465.718 406.999C465.902 407.971 466 408.974 466 410C466 418.837 458.837 426 450 426Z" fill="#B58863"/>
<path d="M490 426C481.163 426 474 418.837 474 410C474 408.974 474.099 407.971 474.283 406.999L490 240L505.718 406.999C505.902 407.971 506 408.974 506 410C506 418.837 498.837 426 490 426Z" fill="#D8C2A2"/>
<path d="M290 426C281.163 426 274 418.837 274 410C274 408.974 274.099 407.971 274.283 406.999L290 240L305.718 406.999C305.902 407.971 306 408.974 306 410C306 418.837 298.837 426 290 426Z" fill="#B58863"/>
<path d="M330 426C321.163 426 314 418.837 314 410C314 408.974 314.099 407.971 314.283 406.999L330 240L345.718 406.999C345.902 407.971 346 408.974 346 410C346 418.837 338.837 426 330 426Z" fill="#D8C2A2"/>
<path d="M370 426C361.163 426 354 418.837 354 410C354 408.974 354.099 407.971 354.283 406.999L370 240L385.718 406.999C385.902 407.971 386 408.974 386 410C386 418.837 378.837 426 370 426Z" fill="#B58863"/>
<path d="M410 426C401.163 426 394 418.837 394 410C394 408.974 394.099 407.971 394.283 406.999L410 240L425.718 406.999C425.902 407.971 426 408.974 426 410C426 418.837 418.837 426 410 426Z" fill="#D8C2A2"/>
<path d="M190 426C181.163 426 174 418.837 174 410C174 408.974 174.099 407.971 174.283 406.999L190 240L205.718 406.999C205.902 407.971 206 408.974 206 410C206 418.837 198.837 426 190 426Z" fill="#B58863"/>
<path d="M230 426C221.163 426 214 418.837 214 410C214 408.974 214.099 407.971 214.283 406.999L230 240L245.718 406.999C245.902 407.971 246 408.974 246 410C246 418.837 238.837 426 230 426Z" fill="#D8C2A2"/>
<path d="M30 426C21.1634 426 14 418.837 14 410C14 408.974 14.0987 407.971 14.2832 406.999L30 240L45.7178 406.999C45.9023 407.971 46 408.974 46 410C46 418.837 38.8366 426 30 426Z" fill="#B58863"/>
<path d="M70 426C61.1634 426 54 418.837 54 410C54 408.974 54.0987 407.971 54.2832 406.999L70 240L85.7178 406.999C85.9023 407.971 86 408.974 86 410C86 418.837 78.8366 426 70 426Z" fill="#D8C2A2"/>
<path d="M110 426C101.163 426 94 418.837 94 410C94 408.974 94.0987 407.971 94.2832 406.999L110 240L125.718 406.999C125.902 407.971 126 408.974 126 410C126 418.837 118.837 426 110 426Z" fill="#B58863"/>
<path d="M150 426C141.163 426 134 418.837 134 410C134 408.974 134.099 407.971 134.283 406.999L150 240L165.718 406.999C165.902 407.971 166 408.974 166 410C166 418.837 158.837 426 150 426Z" fill="#D8C2A2"/>
<rect x="257" y="70" width="6" height="47" rx="3" fill="#5B5B5B"/>
<rect x="257" y="325" width="6" height="47" rx="3" fill="#5B5B5B"/>
<defs>
<linearGradient id="paint0_linear_622_759" x1="390" y1="0" x2="390" y2="440" gradientUnits="userSpaceOnUse">
<stop stop-color="#E3D4C1"/>
<stop offset="1" stop-color="#D8C2A2"/>
</linearGradient>
<linearGradient id="paint1_linear_622_759" x1="130" y1="0" x2="130" y2="440" gradientUnits="userSpaceOnUse">
<stop stop-color="#E3D4C1"/>
<stop offset="1" stop-color="#D8C2A2"/>
</linearGradient>
</defs>
</svg>
