<svg width="40" height="40" viewBox="0 0 40 40" fill="none" xmlns="http://www.w3.org/2000/svg">
<circle cx="20" cy="20" r="17.5" fill="white" stroke="black"/>
<path d="M30.6077 9.40884C33.7754 12.5877 35.2288 16.8347 34.9708 20.9945C34.75 17.4641 33.2962 13.9967 30.6077 11.2987C24.7495 5.41981 15.2517 5.41993 9.39339 11.2987C6.70352 13.9981 5.24921 17.4676 5.02948 21C4.76995 16.8386 6.22381 12.5898 9.39261 9.40962C15.2509 3.53064 24.7494 3.52987 30.6077 9.40884Z" fill="#939192"/>
<path d="M9.39242 30.5905C6.22466 27.4112 4.7712 23.1636 5.02916 19.0031C5.25004 22.5341 6.7039 26.002 9.39242 28.7003C15.2508 34.5801 24.7489 34.5799 30.6074 28.7003C33.2967 26.0012 34.7504 22.5321 34.9706 19C35.2295 23.1613 33.7765 27.4096 30.6082 30.5897C24.7497 36.4696 15.2509 36.4704 9.39242 30.5905Z" fill="#D5D5D5"/>
<path d="M27.074 12.7558C29.1841 14.741 30.1509 17.3926 29.9809 19.9904C29.8322 17.7861 28.8646 15.6217 27.074 13.9371C23.1677 10.2626 16.834 10.2626 12.9278 13.9371C11.1345 15.6242 10.1662 17.7924 10.0197 20C9.84666 17.399 10.8147 14.7435 12.9278 12.7558C16.834 9.08141 23.1678 9.08136 27.074 12.7558Z" fill="#939192"/>
<path d="M12.926 26.9686C10.816 24.7849 9.84908 21.8681 10.0191 19.0106C10.1678 21.4352 11.1355 23.8161 12.926 25.6692C16.8323 29.7111 23.166 29.7111 27.0722 25.6692C28.8656 23.8134 29.8337 21.4284 29.9803 19C30.1534 21.8612 29.1853 24.7821 27.0722 26.9686C23.166 31.0104 16.8322 31.0105 12.926 26.9686Z" fill="#D5D5D5"/>
</svg>
