<svg width="80" height="80" viewBox="0 0 80 80" fill="none" xmlns="http://www.w3.org/2000/svg">
<path d="M60 14.5H20C16.9624 14.5 14.5 16.9624 14.5 20V60C14.5 63.0376 16.9624 65.5 20 65.5H60C63.0376 65.5 65.5 63.0376 65.5 60V20C65.5 16.9624 63.0376 14.5 60 14.5Z" fill="#1F1F1F" stroke="white"/>
<path d="M42.9585 42.9483C43.7641 42.1361 44.1668 41.15 44.1668 39.99C44.1668 38.83 43.7607 37.8472 42.9485 37.0416C42.1363 36.2361 41.1502 35.8333 39.9902 35.8333C38.8302 35.8333 37.8474 36.2394 37.0418 37.0516C36.2363 37.8639 35.8335 38.85 35.8335 40.01C35.8335 41.17 36.2396 42.1528 37.0518 42.9583C37.8641 43.7639 38.8502 44.1666 40.0102 44.1666C41.1702 44.1666 42.1529 43.7605 42.9585 42.9483Z" fill="white"/>
</svg>
