<svg width="80" height="80" viewBox="0 0 80 80" fill="none" xmlns="http://www.w3.org/2000/svg">
<rect x="14.5" y="14.5" width="51" height="51" rx="5.5" fill="white" stroke="black"/>
<path d="M27.9585 57.9483C28.7641 57.1361 29.1668 56.15 29.1668 54.99C29.1668 53.83 28.7607 52.8472 27.9485 52.0416C27.1363 51.2361 26.1502 50.8333 24.9902 50.8333C23.8302 50.8333 22.8474 51.2394 22.0418 52.0516C21.2363 52.8639 20.8335 53.85 20.8335 55.01C20.8335 56.17 21.2396 57.1528 22.0518 57.9583C22.8641 58.7639 23.8502 59.1666 25.0102 59.1666C26.1702 59.1666 27.1529 58.7605 27.9585 57.9483ZM27.9585 27.9483C28.7641 27.1361 29.1668 26.15 29.1668 24.99C29.1668 23.83 28.7607 22.8472 27.9485 22.0416C27.1363 21.2361 26.1502 20.8333 24.9902 20.8333C23.8302 20.8333 22.8474 21.2394 22.0418 22.0516C21.2363 22.8639 20.8335 23.85 20.8335 25.01C20.8335 26.17 21.2396 27.1528 22.0518 27.9583C22.8641 28.7639 23.8502 29.1666 25.0102 29.1666C26.1702 29.1666 27.1529 28.7605 27.9585 27.9483ZM27.9785 43.115C28.7841 42.3028 29.1868 41.3166 29.1868 40.1566C29.1868 38.9966 28.7807 38.0139 27.9685 37.2083C27.1563 36.4028 26.1702 36 25.0102 36C23.8502 36 22.8674 36.4061 22.0618 37.2183C21.2563 38.0305 20.8535 39.0166 20.8535 40.1766C20.8535 41.3366 21.2596 42.3194 22.0718 43.125C22.884 43.9305 23.8702 44.3333 25.0302 44.3333C26.1902 44.3333 27.1729 43.9272 27.9785 43.115ZM57.9585 57.9483C58.7641 57.1361 59.1668 56.15 59.1668 54.99C59.1668 53.83 58.7607 52.8472 57.9485 52.0416C57.1363 51.2361 56.1502 50.8333 54.9902 50.8333C53.8302 50.8333 52.8474 51.2394 52.0418 52.0516C51.2363 52.8639 50.8335 53.85 50.8335 55.01C50.8335 56.17 51.2396 57.1528 52.0518 57.9583C52.8641 58.7639 53.8502 59.1666 55.0102 59.1666C56.1702 59.1666 57.1529 58.7605 57.9585 57.9483ZM57.9585 27.9483C58.7641 27.1361 59.1668 26.15 59.1668 24.99C59.1668 23.83 58.7607 22.8472 57.9485 22.0416C57.1363 21.2361 56.1502 20.8333 54.9902 20.8333C53.8302 20.8333 52.8474 21.2394 52.0418 22.0516C51.2363 22.8639 50.8335 23.85 50.8335 25.01C50.8335 26.17 51.2396 27.1528 52.0518 27.9583C52.8641 28.7639 53.8502 29.1666 55.0102 29.1666C56.1702 29.1666 57.1529 28.7605 57.9585 27.9483Z" fill="#1F1F1F"/>
<path d="M59.1868 40.1566C59.1868 41.3166 58.7841 42.3028 57.9785 43.115C57.1729 43.9272 56.1902 44.3333 55.0302 44.3333C53.8702 44.3333 52.8841 43.9305 52.0718 43.125C51.2596 42.3194 50.8535 41.3366 50.8535 40.1766C50.8535 39.0166 51.2563 38.0305 52.0618 37.2183C52.8674 36.4061 53.8502 36 55.0102 36C56.1702 36 57.1563 36.4028 57.9685 37.2083C58.7807 38.0139 59.1868 38.9966 59.1868 40.1566Z" fill="#1F1F1F"/>
</svg>
