<svg xmlns="http://www.w3.org/2000/svg" width="80" height="80" viewBox="0 0 80 80" fill="none"><style>
@keyframes a0_t { 0% { transform: translate(40px,40px) rotate(0deg) translate(-40px,-40px); animation-timing-function: cubic-bezier(.3,-0.3,.2,1); } 100% { transform: translate(40px,40px) rotate(270deg) translate(-40px,-40px); } }
@keyframes a0_v { 0% { visibility: visible; animation-timing-function: steps(1); } 11.111% { visibility: hidden; animation-timing-function: steps(1); } 100% { visibility: hidden; animation-timing-function: steps(1); } }
@keyframes a1_t { 0% { transform: translate(40px,40px) rotate(0deg) translate(-40px,-40px); animation-timing-function: cubic-bezier(.3,-0.3,.2,1); } 100% { transform: translate(40px,40px) rotate(270deg) translate(-40px,-40px); } }
@keyframes a1_v { 0% { visibility: hidden; animation-timing-function: steps(1); } 11.111% { visibility: visible; animation-timing-function: steps(1); } 22.222% { visibility: hidden; animation-timing-function: steps(1); } 100% { visibility: hidden; animation-timing-function: steps(1); } }
@keyframes a2_t { 0% { transform: translate(40px,40px) rotate(0deg) translate(-40px,-40px); animation-timing-function: cubic-bezier(.3,-0.3,.2,1); } 100% { transform: translate(40px,40px) rotate(270deg) translate(-40px,-40px); } }
@keyframes a2_v { 0% { visibility: hidden; animation-timing-function: steps(1); } 22.222% { visibility: visible; animation-timing-function: steps(1); } 33.333% { visibility: hidden; animation-timing-function: steps(1); } 88.889% { visibility: visible; animation-timing-function: steps(1); } 100% { visibility: hidden; animation-timing-function: steps(1); } }
@keyframes a3_t { 0% { transform: translate(40px,40px) rotate(0deg) translate(-40px,-40px); animation-timing-function: cubic-bezier(.3,-0.3,.2,1); } 100% { transform: translate(40px,40px) rotate(270deg) translate(-40px,-40px); } }
@keyframes a3_v { 0% { visibility: hidden; animation-timing-function: steps(1); } 33.333% { visibility: visible; animation-timing-function: steps(1); } 44.444% { visibility: hidden; animation-timing-function: steps(1); } 77.778% { visibility: visible; animation-timing-function: steps(1); } 88.889% { visibility: hidden; animation-timing-function: steps(1); } 100% { visibility: hidden; animation-timing-function: steps(1); } }
@keyframes a4_t { 0% { transform: translate(40px,40px) rotate(0deg) translate(-40px,-40px); animation-timing-function: cubic-bezier(.3,-0.3,.2,1); } 100% { transform: translate(40px,40px) rotate(270deg) translate(-40px,-40px); } }
@keyframes a4_v { 0% { visibility: hidden; animation-timing-function: steps(1); } 44.444% { visibility: visible; animation-timing-function: steps(1); } 55.556% { visibility: hidden; animation-timing-function: steps(1); } 100% { visibility: hidden; animation-timing-function: steps(1); } }
@keyframes a5_t { 0% { transform: translate(40px,40px) rotate(0deg) translate(-40px,-40px); animation-timing-function: cubic-bezier(.3,-0.3,.2,1); } 100% { transform: translate(40px,40px) rotate(270deg) translate(-40px,-40px); } }
@keyframes a5_v { 0% { visibility: hidden; animation-timing-function: steps(1); } 55.556% { visibility: visible; animation-timing-function: steps(1); } 66.667% { visibility: hidden; animation-timing-function: steps(1); } 100% { visibility: hidden; animation-timing-function: steps(1); } }
</style><g visibility="visible" transform="translate(40,40) translate(-40,-40)" style="animation: .9s linear infinite both a0_t, .9s linear infinite forwards a0_v;"><rect x="14.5" y="14.5" width="51" height="51" rx="5.5" fill="#fff" stroke="#000"/><path d="M43 42.9c.8-0.8 1.2-1.8 1.2-2.9c0-1.2-0.4-2.2-1.3-3c-0.8-0.8-1.7-1.2-2.9-1.2c-1.2 0-2.2 .4-3 1.3c-0.8 .8-1.2 1.8-1.2 2.9c0 1.2 .4 2.2 1.3 3c.8 .8 1.8 1.2 2.9 1.2c1.2 0 2.2-0.4 3-1.3Z" fill="#1f1f1f"/></g><g visibility="hidden" transform="translate(40,40) translate(-40,-40)" style="animation: .9s linear infinite both a1_t, .9s linear infinite forwards a1_v;"><rect x="14.5" y="14.5" width="51" height="51" rx="5.5" fill="#fff" stroke="#000"/><path d="M28 57.9c.8-0.8 1.2-1.8 1.2-2.9c0-1.2-0.4-2.2-1.3-3c-0.8-0.8-1.7-1.2-2.9-1.2c-1.2 0-2.2 .4-3 1.3c-0.8 .8-1.2 1.8-1.2 2.9c0 1.2 .4 2.2 1.3 3c.8 .8 1.8 1.2 2.9 1.2c1.2 0 2.2-0.4 3-1.3Zm30-30c.8-0.8 1.2-1.7 1.2-2.9c0-1.2-0.4-2.2-1.3-3c-0.8-0.8-1.7-1.2-2.9-1.2c-1.2 0-2.2 .4-3 1.3c-0.8 .8-1.2 1.8-1.2 2.9c0 1.2 .4 2.2 1.3 3c.8 .8 1.8 1.2 2.9 1.2c1.2 0 2.2-0.4 3-1.3Z" fill="#1f1f1f"/></g><g visibility="hidden" transform="translate(40,40) translate(-40,-40)" style="animation: .9s linear infinite both a2_t, .9s linear infinite forwards a2_v;"><rect x="14.5" y="14.5" width="51" height="51" rx="5.5" fill="#fff" stroke="#000"/><path d="M28 57.9c.8-0.8 1.2-1.8 1.2-2.9c0-1.2-0.4-2.2-1.3-3c-0.8-0.8-1.7-1.2-2.9-1.2c-1.2 0-2.2 .4-3 1.3c-0.8 .8-1.2 1.8-1.2 2.9c0 1.2 .4 2.2 1.3 3c.8 .8 1.8 1.2 2.9 1.2c1.2 0 2.2-0.4 3-1.3Zm15-15c.8-0.8 1.2-1.8 1.2-2.9c0-1.2-0.4-2.2-1.3-3c-0.8-0.8-1.7-1.2-2.9-1.2c-1.2 0-2.2 .4-3 1.3c-0.8 .8-1.2 1.8-1.2 2.9c0 1.2 .4 2.2 1.3 3c.8 .8 1.8 1.2 2.9 1.2c1.2 0 2.2-0.4 3-1.3Zm15-15c.8-0.8 1.2-1.7 1.2-2.9c0-1.2-0.4-2.2-1.3-3c-0.8-0.8-1.7-1.2-2.9-1.2c-1.2 0-2.2 .4-3 1.3c-0.8 .8-1.2 1.8-1.2 2.9c0 1.2 .4 2.2 1.3 3c.8 .8 1.8 1.2 2.9 1.2c1.2 0 2.2-0.4 3-1.3Z" fill="#1f1f1f"/></g><g visibility="hidden" transform="translate(40,40) translate(-40,-40)" style="animation: .9s linear infinite both a3_t, .9s linear infinite forwards a3_v;"><rect x="14.5" y="14.5" width="51" height="51" rx="5.5" fill="#fff" stroke="#000"/><path d="M28 57.9c.8-0.8 1.2-1.8 1.2-2.9c0-1.2-0.4-2.2-1.3-3c-0.8-0.8-1.7-1.2-2.9-1.2c-1.2 0-2.2 .4-3 1.3c-0.8 .8-1.2 1.8-1.2 2.9c0 1.2 .4 2.2 1.3 3c.8 .8 1.8 1.2 2.9 1.2c1.2 0 2.2-0.4 3-1.3Zm0-30c.8-0.8 1.2-1.7 1.2-2.9c0-1.2-0.4-2.2-1.3-3c-0.8-0.8-1.7-1.2-2.9-1.2c-1.2 0-2.2 .4-3 1.3c-0.8 .8-1.2 1.8-1.2 2.9c0 1.2 .4 2.2 1.3 3c.8 .8 1.8 1.2 2.9 1.2c1.2 0 2.2-0.4 3-1.3Zm30 30c.8-0.8 1.2-1.8 1.2-2.9c0-1.2-0.4-2.2-1.3-3c-0.8-0.8-1.7-1.2-2.9-1.2c-1.2 0-2.2 .4-3 1.3c-0.8 .8-1.2 1.8-1.2 2.9c0 1.2 .4 2.2 1.3 3c.8 .8 1.8 1.2 2.9 1.2c1.2 0 2.2-0.4 3-1.3Zm0-30c.8-0.8 1.2-1.7 1.2-2.9c0-1.2-0.4-2.2-1.3-3c-0.8-0.8-1.7-1.2-2.9-1.2c-1.2 0-2.2 .4-3 1.3c-0.8 .8-1.2 1.8-1.2 2.9c0 1.2 .4 2.2 1.3 3c.8 .8 1.8 1.2 2.9 1.2c1.2 0 2.2-0.4 3-1.3Z" fill="#1f1f1f"/></g><g visibility="hidden" transform="translate(40,40) translate(-40,-40)" style="animation: .9s linear infinite both a4_t, .9s linear infinite forwards a4_v;"><rect x="14.5" y="14.5" width="51" height="51" rx="5.5" fill="#fff" stroke="#000"/><path d="M28 57.9c.8-0.8 1.2-1.8 1.2-2.9c0-1.2-0.4-2.2-1.3-3c-0.8-0.8-1.7-1.2-2.9-1.2c-1.2 0-2.2 .4-3 1.3c-0.8 .8-1.2 1.8-1.2 2.9c0 1.2 .4 2.2 1.3 3c.8 .8 1.8 1.2 2.9 1.2c1.2 0 2.2-0.4 3-1.3Zm0-30c.8-0.8 1.2-1.7 1.2-2.9c0-1.2-0.4-2.2-1.3-3c-0.8-0.8-1.7-1.2-2.9-1.2c-1.2 0-2.2 .4-3 1.3c-0.8 .8-1.2 1.8-1.2 2.9c0 1.2 .4 2.2 1.3 3c.8 .8 1.8 1.2 2.9 1.2c1.2 0 2.2-0.4 3-1.3Zm15 15c.8-0.8 1.2-1.8 1.2-2.9c0-1.2-0.4-2.2-1.3-3c-0.8-0.8-1.7-1.2-2.9-1.2c-1.2 0-2.2 .4-3 1.3c-0.8 .8-1.2 1.8-1.2 2.9c0 1.2 .4 2.2 1.3 3c.8 .8 1.8 1.2 2.9 1.2c1.2 0 2.2-0.4 3-1.3Zm15 15c.8-0.8 1.2-1.8 1.2-2.9c0-1.2-0.4-2.2-1.3-3c-0.8-0.8-1.7-1.2-2.9-1.2c-1.2 0-2.2 .4-3 1.3c-0.8 .8-1.2 1.8-1.2 2.9c0 1.2 .4 2.2 1.3 3c.8 .8 1.8 1.2 2.9 1.2c1.2 0 2.2-0.4 3-1.3Zm0-30c.8-0.8 1.2-1.7 1.2-2.9c0-1.2-0.4-2.2-1.3-3c-0.8-0.8-1.7-1.2-2.9-1.2c-1.2 0-2.2 .4-3 1.3c-0.8 .8-1.2 1.8-1.2 2.9c0 1.2 .4 2.2 1.3 3c.8 .8 1.8 1.2 2.9 1.2c1.2 0 2.2-0.4 3-1.3Z" fill="#1f1f1f"/></g><g visibility="hidden" transform="translate(40,40) translate(-40,-40)" style="animation: .9s linear infinite both a5_t, .9s linear infinite forwards a5_v;"><rect x="14.5" y="14.5" width="51" height="51" rx="5.5" fill="#fff" stroke="#000"/><path d="M28 57.9c.8-0.8 1.2-1.8 1.2-2.9c0-1.2-0.4-2.2-1.3-3c-0.8-0.8-1.7-1.2-2.9-1.2c-1.2 0-2.2 .4-3 1.3c-0.8 .8-1.2 1.8-1.2 2.9c0 1.2 .4 2.2 1.3 3c.8 .8 1.8 1.2 2.9 1.2c1.2 0 2.2-0.4 3-1.3Zm0-30c.8-0.8 1.2-1.7 1.2-2.9c0-1.2-0.4-2.2-1.3-3c-0.8-0.8-1.7-1.2-2.9-1.2c-1.2 0-2.2 .4-3 1.3c-0.8 .8-1.2 1.8-1.2 2.9c0 1.2 .4 2.2 1.3 3c.8 .8 1.8 1.2 2.9 1.2c1.2 0 2.2-0.4 3-1.3Zm0 15.2c.8-0.8 1.2-1.8 1.2-2.9c0-1.2-0.4-2.2-1.2-3c-0.8-0.8-1.8-1.2-3-1.2c-1.1 0-2.1 .4-2.9 1.2c-0.8 .8-1.2 1.8-1.2 3c0 1.1 .4 2.1 1.2 2.9c.8 .8 1.8 1.2 2.9 1.2c1.2 0 2.2-0.4 3-1.2Zm30 14.8c.8-0.8 1.2-1.7 1.2-2.9c0-1.2-0.4-2.2-1.3-3c-0.8-0.8-1.7-1.2-2.9-1.2c-1.2 0-2.2 .4-3 1.3c-0.8 .8-1.2 1.8-1.2 2.9c0 1.2 .4 2.2 1.3 3c.8 .8 1.8 1.2 2.9 1.2c1.2 0 2.2-0.4 3-1.3Zm0-30c.8-0.8 1.2-1.7 1.2-2.9c0-1.2-0.4-2.2-1.3-3c-0.8-0.8-1.7-1.2-2.9-1.2c-1.2 0-2.2 .4-3 1.3c-0.8 .8-1.2 1.8-1.2 2.9c0 1.2 .4 2.2 1.3 3c.8 .8 1.8 1.2 2.9 1.2c1.2 0 2.2-0.4 3-1.3Z" fill="#1f1f1f"/><path d="M59.2 40.2c0 1.1-0.4 2.1-1.2 2.9c-0.8 .8-1.8 1.2-3 1.2c-1.1 0-2.1-0.4-2.9-1.2c-0.8-0.8-1.2-1.8-1.2-2.9c0-1.2 .4-2.2 1.2-3c.8-0.8 1.8-1.2 2.9-1.2c1.2 0 2.2 .4 3 1.2c.8 .8 1.2 1.8 1.2 3Z" fill="#1f1f1f"/></g></svg>