<svg width="80" height="80" viewBox="0 0 80 80" fill="none" xmlns="http://www.w3.org/2000/svg">
<rect x="14.5" y="14.5" width="51" height="51" rx="5.5" fill="white" stroke="black"/>
<path d="M27.9585 57.9483C28.7641 57.1361 29.1668 56.15 29.1668 54.99C29.1668 53.83 28.7607 52.8472 27.9485 52.0416C27.1363 51.2361 26.1502 50.8333 24.9902 50.8333C23.8302 50.8333 22.8474 51.2394 22.0418 52.0516C21.2363 52.8639 20.8335 53.85 20.8335 55.01C20.8335 56.17 21.2396 57.1528 22.0518 57.9583C22.8641 58.7639 23.8502 59.1666 25.0102 59.1666C26.1702 59.1666 27.1529 58.7605 27.9585 57.9483ZM27.9585 27.9483C28.7641 27.1361 29.1668 26.15 29.1668 24.99C29.1668 23.83 28.7607 22.8472 27.9485 22.0416C27.1363 21.2361 26.1502 20.8333 24.9902 20.8333C23.8302 20.8333 22.8474 21.2394 22.0418 22.0516C21.2363 22.8639 20.8335 23.85 20.8335 25.01C20.8335 26.17 21.2396 27.1528 22.0518 27.9583C22.8641 28.7639 23.8502 29.1666 25.0102 29.1666C26.1702 29.1666 27.1529 28.7605 27.9585 27.9483ZM42.9585 42.9483C43.7641 42.1361 44.1668 41.15 44.1668 39.99C44.1668 38.83 43.7607 37.8472 42.9485 37.0416C42.1363 36.2361 41.1502 35.8333 39.9902 35.8333C38.8302 35.8333 37.8474 36.2394 37.0418 37.0516C36.2363 37.8639 35.8335 38.85 35.8335 40.01C35.8335 41.17 36.2396 42.1528 37.0518 42.9583C37.8641 43.7639 38.8502 44.1666 40.0102 44.1666C41.1702 44.1666 42.1529 43.7605 42.9585 42.9483ZM57.9585 57.9483C58.7641 57.1361 59.1668 56.15 59.1668 54.99C59.1668 53.83 58.7607 52.8472 57.9485 52.0416C57.1363 51.2361 56.1502 50.8333 54.9902 50.8333C53.8302 50.8333 52.8474 51.2394 52.0418 52.0516C51.2363 52.8639 50.8335 53.85 50.8335 55.01C50.8335 56.17 51.2396 57.1528 52.0518 57.9583C52.8641 58.7639 53.8502 59.1666 55.0102 59.1666C56.1702 59.1666 57.1529 58.7605 57.9585 57.9483ZM57.9585 27.9483C58.7641 27.1361 59.1668 26.15 59.1668 24.99C59.1668 23.83 58.7607 22.8472 57.9485 22.0416C57.1363 21.2361 56.1502 20.8333 54.9902 20.8333C53.8302 20.8333 52.8474 21.2394 52.0418 22.0516C51.2363 22.8639 50.8335 23.85 50.8335 25.01C50.8335 26.17 51.2396 27.1528 52.0518 27.9583C52.8641 28.7639 53.8502 29.1666 55.0102 29.1666C56.1702 29.1666 57.1529 28.7605 57.9585 27.9483Z" fill="#1F1F1F"/>
</svg>
