<svg width="700" height="600" viewBox="0 0 700 600" fill="none" xmlns="http://www.w3.org/2000/svg">
<path fill-rule="evenodd" clip-rule="evenodd" d="M700 600H0V0H700V600ZM50 507.988C26.7975 507.988 7.98828 526.798 7.98828 550C7.98828 573.202 26.7975 592.012 50 592.012C73.2025 592.012 92.0117 573.202 92.0117 550C92.0117 526.798 73.2025 507.988 50 507.988ZM150 507.988C126.798 507.988 107.988 526.798 107.988 550C107.988 573.202 126.798 592.012 150 592.012C173.202 592.012 192.012 573.202 192.012 550C192.012 526.798 173.202 507.988 150 507.988ZM250 507.988C226.798 507.988 207.988 526.798 207.988 550C207.988 573.202 226.798 592.012 250 592.012C273.202 592.012 292.012 573.202 292.012 550C292.012 526.798 273.202 507.988 250 507.988ZM350 507.988C326.798 507.988 307.988 526.798 307.988 550C307.988 573.202 326.798 592.012 350 592.012C373.202 592.012 392.012 573.202 392.012 550C392.012 526.798 373.202 507.988 350 507.988ZM450 507.988C426.798 507.988 407.988 526.798 407.988 550C407.988 573.202 426.798 592.012 450 592.012C473.202 592.012 492.012 573.202 492.012 550C492.012 526.798 473.202 507.988 450 507.988ZM550 507.988C526.798 507.988 507.988 526.798 507.988 550C507.988 573.202 526.798 592.012 550 592.012C573.202 592.012 592.012 573.202 592.012 550C592.012 526.798 573.202 507.988 550 507.988ZM650 507.988C626.798 507.988 607.988 526.798 607.988 550C607.988 573.202 626.798 592.012 650 592.012C673.202 592.012 692.012 573.202 692.012 550C692.012 526.798 673.202 507.988 650 507.988ZM50 407.988C26.7975 407.988 7.98828 426.798 7.98828 450C7.98828 473.202 26.7975 492.012 50 492.012C73.2025 492.012 92.0117 473.202 92.0117 450C92.0117 426.798 73.2025 407.988 50 407.988ZM150 407.988C126.798 407.988 107.988 426.798 107.988 450C107.988 473.202 126.798 492.012 150 492.012C173.202 492.012 192.012 473.202 192.012 450C192.012 426.798 173.202 407.988 150 407.988ZM250 407.988C226.798 407.988 207.988 426.798 207.988 450C207.988 473.202 226.798 492.012 250 492.012C273.202 492.012 292.012 473.202 292.012 450C292.012 426.798 273.202 407.988 250 407.988ZM350 407.988C326.798 407.988 307.988 426.798 307.988 450C307.988 473.202 326.798 492.012 350 492.012C373.202 492.012 392.012 473.202 392.012 450C392.012 426.798 373.202 407.988 350 407.988ZM450 407.988C426.798 407.988 407.988 426.798 407.988 450C407.988 473.202 426.798 492.012 450 492.012C473.202 492.012 492.012 473.202 492.012 450C492.012 426.798 473.202 407.988 450 407.988ZM550 407.988C526.798 407.988 507.988 426.798 507.988 450C507.988 473.202 526.798 492.012 550 492.012C573.202 492.012 592.012 473.202 592.012 450C592.012 426.798 573.202 407.988 550 407.988ZM650 407.988C626.798 407.988 607.988 426.798 607.988 450C607.988 473.202 626.798 492.012 650 492.012C673.202 492.012 692.012 473.202 692.012 450C692.012 426.798 673.202 407.988 650 407.988ZM50 307.988C26.7975 307.988 7.98828 326.798 7.98828 350C7.98828 373.202 26.7975 392.012 50 392.012C73.2025 392.012 92.0117 373.202 92.0117 350C92.0117 326.798 73.2025 307.988 50 307.988ZM150 307.988C126.798 307.988 107.988 326.798 107.988 350C107.988 373.202 126.798 392.012 150 392.012C173.202 392.012 192.012 373.202 192.012 350C192.012 326.798 173.202 307.988 150 307.988ZM250 307.988C226.798 307.988 207.988 326.798 207.988 350C207.988 373.202 226.798 392.012 250 392.012C273.202 392.012 292.012 373.202 292.012 350C292.012 326.798 273.202 307.988 250 307.988ZM350 307.988C326.798 307.988 307.988 326.798 307.988 350C307.988 373.202 326.798 392.012 350 392.012C373.202 392.012 392.012 373.202 392.012 350C392.012 326.798 373.202 307.988 350 307.988ZM450 307.988C426.798 307.988 407.988 326.798 407.988 350C407.988 373.202 426.798 392.012 450 392.012C473.202 392.012 492.012 373.202 492.012 350C492.012 326.798 473.202 307.988 450 307.988ZM550 307.988C526.798 307.988 507.988 326.798 507.988 350C507.988 373.202 526.798 392.012 550 392.012C573.202 392.012 592.012 373.202 592.012 350C592.012 326.798 573.202 307.988 550 307.988ZM650 307.988C626.798 307.988 607.988 326.798 607.988 350C607.988 373.202 626.798 392.012 650 392.012C673.202 392.012 692.012 373.202 692.012 350C692.012 326.798 673.202 307.988 650 307.988ZM50 207.988C26.7975 207.988 7.98828 226.798 7.98828 250C7.98828 273.202 26.7975 292.012 50 292.012C73.2025 292.012 92.0117 273.202 92.0117 250C92.0117 226.798 73.2025 207.988 50 207.988ZM150 207.988C126.798 207.988 107.988 226.798 107.988 250C107.988 273.202 126.798 292.012 150 292.012C173.202 292.012 192.012 273.202 192.012 250C192.012 226.798 173.202 207.988 150 207.988ZM250 207.988C226.798 207.988 207.988 226.798 207.988 250C207.988 273.202 226.798 292.012 250 292.012C273.202 292.012 292.012 273.202 292.012 250C292.012 226.798 273.202 207.988 250 207.988ZM350 207.988C326.798 207.988 307.988 226.798 307.988 250C307.988 273.202 326.798 292.012 350 292.012C373.202 292.012 392.012 273.202 392.012 250C392.012 226.798 373.202 207.988 350 207.988ZM450 207.988C426.798 207.988 407.988 226.798 407.988 250C407.988 273.202 426.798 292.012 450 292.012C473.202 292.012 492.012 273.202 492.012 250C492.012 226.798 473.202 207.988 450 207.988ZM550 207.988C526.798 207.988 507.988 226.798 507.988 250C507.988 273.202 526.798 292.012 550 292.012C573.202 292.012 592.012 273.202 592.012 250C592.012 226.798 573.202 207.988 550 207.988ZM650 207.988C626.798 207.988 607.988 226.798 607.988 250C607.988 273.202 626.798 292.012 650 292.012C673.202 292.012 692.012 273.202 692.012 250C692.012 226.798 673.202 207.988 650 207.988ZM50 107.988C26.7975 107.988 7.98828 126.798 7.98828 150C7.98828 173.202 26.7975 192.012 50 192.012C73.2025 192.012 92.0117 173.202 92.0117 150C92.0117 126.798 73.2025 107.988 50 107.988ZM150 107.988C126.798 107.988 107.988 126.798 107.988 150C107.988 173.202 126.798 192.012 150 192.012C173.202 192.012 192.012 173.202 192.012 150C192.012 126.798 173.202 107.988 150 107.988ZM250 107.988C226.798 107.988 207.988 126.798 207.988 150C207.988 173.202 226.798 192.012 250 192.012C273.202 192.012 292.012 173.202 292.012 150C292.012 126.798 273.202 107.988 250 107.988ZM350 107.988C326.798 107.988 307.988 126.798 307.988 150C307.988 173.202 326.798 192.012 350 192.012C373.202 192.012 392.012 173.202 392.012 150C392.012 126.798 373.202 107.988 350 107.988ZM450 107.988C426.798 107.988 407.988 126.798 407.988 150C407.988 173.202 426.798 192.012 450 192.012C473.202 192.012 492.012 173.202 492.012 150C492.012 126.798 473.202 107.988 450 107.988ZM550 107.988C526.798 107.988 507.988 126.798 507.988 150C507.988 173.202 526.798 192.012 550 192.012C573.202 192.012 592.012 173.202 592.012 150C592.012 126.798 573.202 107.988 550 107.988ZM650 107.988C626.798 107.988 607.988 126.798 607.988 150C607.988 173.202 626.798 192.012 650 192.012C673.202 192.012 692.012 173.202 692.012 150C692.012 126.798 673.202 107.988 650 107.988ZM50 7.98828C26.7975 7.98828 7.98828 26.7975 7.98828 50C7.98828 73.2025 26.7975 92.0117 50 92.0117C73.2025 92.0117 92.0117 73.2025 92.0117 50C92.0117 26.7975 73.2025 7.98828 50 7.98828ZM150 7.98828C126.798 7.98828 107.988 26.7975 107.988 50C107.988 73.2025 126.798 92.0117 150 92.0117C173.202 92.0117 192.012 73.2025 192.012 50C192.012 26.7975 173.202 7.98828 150 7.98828ZM250 7.98828C226.798 7.98828 207.988 26.7975 207.988 50C207.988 73.2025 226.798 92.0117 250 92.0117C273.202 92.0117 292.012 73.2025 292.012 50C292.012 26.7975 273.202 7.98828 250 7.98828ZM350 7.98828C326.798 7.98828 307.988 26.7975 307.988 50C307.988 73.2025 326.798 92.0117 350 92.0117C373.202 92.0117 392.012 73.2025 392.012 50C392.012 26.7975 373.202 7.98828 350 7.98828ZM450 7.98828C426.798 7.98828 407.988 26.7975 407.988 50C407.988 73.2025 426.798 92.0117 450 92.0117C473.202 92.0117 492.012 73.2025 492.012 50C492.012 26.7975 473.202 7.98828 450 7.98828ZM550 7.98828C526.798 7.98828 507.988 26.7975 507.988 50C507.988 73.2025 526.798 92.0117 550 92.0117C573.202 92.0117 592.012 73.2025 592.012 50C592.012 26.7975 573.202 7.98828 550 7.98828ZM650 7.98828C626.798 7.98828 607.988 26.7975 607.988 50C607.988 73.2025 626.798 92.0117 650 92.0117C673.202 92.0117 692.012 73.2025 692.012 50C692.012 26.7975 673.202 7.98828 650 7.98828Z" fill="url(#paint0_linear_570_83)"/>
<defs>
<linearGradient id="paint0_linear_570_83" x1="53" y1="-1.44834e-05" x2="647" y2="600" gradientUnits="userSpaceOnUse">
<stop stop-color="#0871CA"/>
<stop offset="1" stop-color="#0057A0"/>
</linearGradient>
</defs>
</svg>
