<svg width="338" height="338" viewBox="0 0 338 338" fill="none" xmlns="http://www.w3.org/2000/svg">
<circle cx="169" cy="169" r="150" fill="#FFAE00"/>
<path d="M167.091 38C206.251 38 241.401 55.1718 265.422 82.3955C242.315 62.0069 211.966 49.6357 178.727 49.6357C106.327 49.6358 47.6358 108.327 47.6357 180.727C47.6357 213.966 60.0076 244.314 80.3965 267.422C53.1724 243.401 36 208.252 36 169.091C36.0002 96.6915 94.6915 38.0002 167.091 38Z" fill="#A77200"/>
<path d="M166.909 300C127.749 300 92.5991 282.828 68.5781 255.604C91.6854 275.993 122.034 288.364 155.273 288.364C227.673 288.364 286.364 229.673 286.364 157.273C286.364 124.034 273.992 93.6855 253.604 70.5781C280.828 94.5991 298 129.748 298 168.909C298 241.309 239.309 300 166.909 300Z" fill="#FFE8B6"/>
</svg>
