<svg width="64" height="24" viewBox="0 0 64 24" fill="none" xmlns="http://www.w3.org/2000/svg">
<path d="M1 8.25C8 1.25 18 1.25 25 8.25C23.7491 9.50086 22.6277 10.6204 21.624 11.624L20.21 10.21C20.7969 9.62303 21.4242 8.99667 22.0938 8.32715C16.5364 3.89022 9.46252 3.88991 3.90527 8.32715L5.53906 9.96094L4.125 11.375L1 8.25Z" fill="#ACACAC"/>
<path d="M18.249 14.999C15.8226 17.4251 13 20.25 13 20.25L9.625 16.875L11.0391 15.4609L13 17.4219C12.9708 17.4511 13.0281 17.3938 13 17.4219C13.7704 16.6515 15.0215 15.3987 16.7861 13.6338L18.249 14.999Z" fill="#06BF00"/>
<path d="M21.4106 18C21.8434 18 22.2166 17.8474 22.5299 17.5421C22.8433 17.2365 23 16.8731 23 16.4516C23 16.0302 22.8433 15.6667 22.5299 15.3612C22.2166 15.0559 21.8434 14.9033 21.4106 14.9033C20.978 14.9033 20.605 15.0559 20.2916 15.3612C19.978 15.6667 19.8212 16.0302 19.8212 16.4516C19.8212 16.8731 19.978 17.2365 20.2916 17.5421C20.605 17.8474 20.978 18 21.4106 18ZM18.0994 13.0967C18.532 13.0967 18.9051 12.9441 19.2188 12.6388C19.5322 12.3335 19.6889 11.97 19.6889 11.5484C19.6889 11.1269 19.5322 10.7636 19.2188 10.4583C18.9051 10.1528 18.532 10 18.0994 10C17.6669 10 17.2937 10.1528 16.9801 10.4583C16.6667 10.7636 16.51 11.1269 16.51 11.5484C16.51 11.97 16.6667 12.3335 16.9801 12.6388C17.2937 12.9441 17.6669 13.0967 18.0994 13.0967ZM5.91379 17.8711H8.03328V15.0322H10.9471V12.9678H8.03328V10.1293H5.91379V12.9678H3V15.0322H5.91379V17.8711Z" fill="#171717"/>
<path d="M37.582 8C37.9569 8.00004 38.297 8.06645 38.6016 8.19922C38.91 8.32812 39.1759 8.52157 39.3984 8.7793C39.6249 9.03317 39.7989 9.3497 39.9199 9.72852C40.041 10.1074 40.1016 10.543 40.1016 11.0352V11.5449C40.1016 12.0371 40.041 12.4727 39.9199 12.8516C39.7989 13.2304 39.6249 13.5489 39.3984 13.8066C39.1759 14.0605 38.912 14.252 38.6074 14.3809C38.3028 14.5097 37.9647 14.5742 37.5938 14.5742C37.2267 14.5742 36.8886 14.5097 36.5801 14.3809C36.2755 14.252 36.0097 14.0605 35.7832 13.8066C35.5567 13.5489 35.3828 13.2304 35.2617 12.8516C35.1406 12.4727 35.0801 12.0371 35.0801 11.5449V11.0352C35.0801 10.543 35.1406 10.1074 35.2617 9.72852C35.3828 9.34966 35.5547 9.03318 35.7773 8.7793C36.0039 8.52157 36.2696 8.3281 36.5742 8.19922C36.8788 8.06649 37.215 8 37.582 8ZM43.6611 8C44.1062 8.00007 44.4913 8.09382 44.8154 8.28125C45.1434 8.46484 45.3995 8.73451 45.583 9.08984C45.7665 9.44528 45.8623 9.88095 45.8701 10.3965H44.5869C44.5791 10.1231 44.538 9.8945 44.4639 9.71094C44.3897 9.52359 44.284 9.38281 44.1475 9.28906C44.0148 9.19539 43.8465 9.14851 43.6436 9.14844C43.4211 9.14844 43.2373 9.19155 43.0928 9.27734C42.9522 9.35934 42.8428 9.48056 42.7646 9.64062C42.6904 9.80077 42.6377 9.99612 42.6064 10.2266C42.5791 10.4531 42.5654 10.7109 42.5654 11V11.5742C42.5654 11.8711 42.5791 12.1348 42.6064 12.3652C42.6338 12.5918 42.6846 12.7852 42.7588 12.9453C42.8369 13.1054 42.9483 13.2266 43.0928 13.3086C43.2373 13.3905 43.423 13.4316 43.6494 13.4316C43.825 13.4316 43.9816 13.3945 44.1182 13.3203C44.2586 13.2461 44.3702 13.1307 44.4521 12.9746C44.5341 12.8145 44.5791 12.6073 44.5869 12.3535H45.8701C45.8623 12.8026 45.7587 13.1954 45.5596 13.5312C45.3604 13.8632 45.0946 14.1211 44.7627 14.3047C44.4347 14.4843 44.0691 14.5741 43.667 14.5742C43.2492 14.5742 42.8837 14.5077 42.5713 14.375C42.2628 14.2383 42.0068 14.0409 41.8037 13.7832C41.6006 13.5254 41.4482 13.2128 41.3467 12.8457C41.249 12.4746 41.2002 12.0508 41.2002 11.5742V11C41.2002 10.5273 41.249 10.1055 41.3467 9.73438C41.4482 9.36333 41.6006 9.0488 41.8037 8.79102C42.0068 8.53332 42.2628 8.33785 42.5713 8.20508C42.8798 8.06848 43.2433 8 43.6611 8ZM49.3291 8C49.7274 8 50.0733 8.06455 50.3662 8.19336C50.6591 8.32224 50.8994 8.51572 51.0869 8.77344C51.2783 9.03123 51.4189 9.34965 51.5088 9.72852C51.6025 10.1074 51.6494 10.543 51.6494 11.0352V11.7207H48.2461C48.2477 12.0243 48.2742 12.2822 48.3271 12.4941C48.3857 12.7128 48.4718 12.8926 48.585 13.0332C48.6982 13.1698 48.8351 13.2715 48.9951 13.3379C49.1591 13.4004 49.3488 13.4316 49.5635 13.4316C49.8797 13.4316 50.1514 13.3729 50.3779 13.2559C50.6083 13.1348 50.8077 12.9784 50.9756 12.7871L51.5791 13.625C51.4658 13.7773 51.3134 13.9278 51.1221 14.0762C50.9307 14.2206 50.6981 14.3399 50.4248 14.4336C50.1553 14.5273 49.8387 14.5742 49.4756 14.5742C49.0656 14.5742 48.7001 14.5136 48.3799 14.3926C48.0597 14.2676 47.788 14.0839 47.5654 13.8418C47.3429 13.5957 47.1728 13.2948 47.0557 12.9395C46.9385 12.5801 46.8799 12.164 46.8799 11.6914V11.082C46.8799 10.5469 46.9405 10.0859 47.0615 9.69922C47.1865 9.30869 47.3585 8.98825 47.5771 8.73828C47.7958 8.48837 48.0538 8.30274 48.3506 8.18164C48.6513 8.06059 48.9777 8.00004 49.3291 8ZM33.7471 14.457H32.376V9.27148H30.5244V14.457H29.1592V8.11719H33.7471V14.457ZM57.1016 9.25391H55.4258V14.457H54.0547V9.25391H52.3965V8.11719H57.1016V9.25391ZM59.6123 12.1191L61.5166 8.11719H62.8467V14.457H61.4932V10.4609L59.5889 14.457H58.2588V8.11719H59.6123V12.1191ZM37.582 9.14844C37.4142 9.14844 37.2597 9.1876 37.1191 9.26562C36.9825 9.34372 36.8633 9.46297 36.7617 9.62305C36.6602 9.77928 36.582 9.9766 36.5273 10.2148C36.4727 10.4492 36.4453 10.7227 36.4453 11.0352V11.5449C36.4453 11.8613 36.4727 12.1387 36.5273 12.377C36.582 12.6113 36.6602 12.8067 36.7617 12.9629C36.8633 13.1191 36.9844 13.2364 37.125 13.3145C37.2656 13.3925 37.422 13.4316 37.5938 13.4316C37.785 13.4316 37.9513 13.3925 38.0918 13.3145C38.2362 13.2363 38.3555 13.119 38.4492 12.9629C38.5468 12.8067 38.6192 12.6112 38.666 12.377C38.7129 12.1387 38.7363 11.8613 38.7363 11.5449V11.0352C38.7363 10.7227 38.709 10.4492 38.6543 10.2148C38.5996 9.97665 38.5214 9.77927 38.4199 9.62305C38.3184 9.46299 38.1952 9.34375 38.0508 9.26562C37.9103 9.18755 37.7538 9.14849 37.582 9.14844ZM49.3232 9.14844C49.1476 9.14849 48.9911 9.18169 48.8545 9.24805C48.7179 9.31446 48.6044 9.42199 48.5146 9.57031C48.4288 9.71873 48.3623 9.91806 48.3154 10.168C48.2866 10.3195 48.2679 10.4934 48.2568 10.6895H50.3018V10.543C50.2939 10.2539 50.2588 10.0059 50.1963 9.79883C50.1338 9.58794 50.0322 9.42772 49.8916 9.31836C49.7549 9.2052 49.5653 9.14844 49.3232 9.14844Z" fill="#171717"/>
</svg>
