<svg width="36" height="36" viewBox="0 0 36 36" fill="none" xmlns="http://www.w3.org/2000/svg">
<path d="M3 13.5625C11.75 4.8125 24.25 4.8125 33 13.5625C31.4364 15.1261 30.0347 16.5255 28.78 17.78L27.0125 16.0124C27.7461 15.2788 28.5303 14.4958 29.3672 13.6589C22.4205 8.11278 13.5782 8.11238 6.63159 13.6589L8.67383 15.7012L6.90625 17.4687L3 13.5625Z" fill="#ACACAC"/>
<path d="M24.5613 21.9988C21.5283 25.0314 18 28.5625 18 28.5625L13.7812 24.3437L15.5488 22.5762L18 25.0273C17.9635 25.0638 18.0351 24.9922 18 25.0273C18.9629 24.0644 20.5268 22.4984 22.7327 20.2922L24.5613 21.9988Z" fill="#06BF00"/>
<path d="M28.5137 25.75C29.0548 25.75 29.5212 25.5592 29.9129 25.1776C30.3046 24.7957 30.5005 24.3413 30.5005 23.8145C30.5005 23.2878 30.3046 22.8334 29.9129 22.4515C29.5212 22.0699 29.0548 21.8791 28.5137 21.8791C27.973 21.8791 27.5068 22.0699 27.115 22.4515C26.723 22.8334 26.527 23.2878 26.527 23.8145C26.527 24.3413 26.723 24.7957 27.115 25.1776C27.5068 25.5592 27.973 25.75 28.5137 25.75ZM24.3748 19.6209C24.9155 19.6209 25.3819 19.4301 25.774 19.0485C26.1657 18.6669 26.3616 18.2125 26.3616 17.6855C26.3616 17.1587 26.1657 16.7045 25.774 16.3229C25.3819 15.941 24.9155 15.75 24.3748 15.75C23.8341 15.75 23.3677 15.941 22.9756 16.3229C22.5839 16.7045 22.388 17.1587 22.388 17.6855C22.388 18.2125 22.5839 18.6669 22.9756 19.0485C23.3677 19.4301 23.8341 19.6209 24.3748 19.6209ZM9.14273 25.5889H11.7921V22.0402H15.4343V19.4598H11.7921V15.9116H9.14273V19.4598H5.50049V22.0402H9.14273V25.5889Z" fill="#171717"/>
</svg>
