<svg width="32" height="32" viewBox="0 0 32 32" fill="none" xmlns="http://www.w3.org/2000/svg">
<g clip-path="url(#clip0_493_90)">
<path d="M6.91507 10.363L6.87149 9.86496L6.37596 9.90832L6.41675 10.404L6.91507 10.363ZM16.778 9.50016L17.2762 9.45793L17.2339 8.95837L16.7344 9.00207L16.778 9.50016ZM11.4153 5.00003L11.5991 4.53503L10.8467 4.23767L10.9172 5.04361L11.4153 5.00003ZM13.9889 6.01717L14.2507 6.4432L15.1027 5.91973L14.1727 5.55217L13.9889 6.01717ZM19.7394 14.9507C19.4643 14.9748 19.2608 15.2173 19.2849 15.4924C19.309 15.7675 19.5515 15.971 19.8266 15.9469L19.783 15.4488L19.7394 14.9507ZM23.5252 15.6234C23.8003 15.5993 24.0038 15.3568 23.9797 15.0817C23.9556 14.8066 23.7131 14.6031 23.438 14.6272L23.4816 15.1253L23.5252 15.6234ZM24.6207 12.7317C24.3972 12.8938 24.3474 13.2065 24.5096 13.43C24.6718 13.6535 24.9844 13.7032 25.208 13.541L24.9143 13.1363L24.6207 12.7317ZM28.1283 11.4221C28.3518 11.2599 28.4016 10.9473 28.2394 10.7238C28.0772 10.5002 27.7646 10.4505 27.5411 10.6127L27.8347 11.0174L28.1283 11.4221ZM25.649 14.4335C25.3739 14.4575 25.1704 14.7001 25.1944 14.9752C25.2185 15.2502 25.461 15.4537 25.7361 15.4297L25.6925 14.9316L25.649 14.4335ZM31.284 14.9443C31.5591 14.9202 31.7626 14.6777 31.7385 14.4026C31.7145 14.1275 31.472 13.924 31.1969 13.9481L31.2404 14.4462L31.284 14.9443ZM25.3827 16.3563C25.1183 16.2765 24.8393 16.426 24.7595 16.6904C24.6797 16.9548 24.8293 17.2338 25.0936 17.3136L25.2382 16.8349L25.3827 16.3563ZM28.2837 18.2768C28.548 18.3566 28.827 18.207 28.9068 17.9427C28.9867 17.6783 28.8371 17.3993 28.5727 17.3195L28.4282 17.7981L28.2837 18.2768ZM3.43221 13.1523L3.38863 12.6542C3.25653 12.6658 3.13442 12.7294 3.04919 12.8309C2.96395 12.9325 2.92255 13.0638 2.93411 13.1959L3.43221 13.1523ZM20.6924 11.6423L21.1905 11.5987C21.1789 11.4666 21.1153 11.3445 21.0138 11.2593C20.9122 11.174 20.7809 11.1326 20.6488 11.1442L20.6924 11.6423ZM20.9081 14.108L20.9517 14.6061C21.2267 14.582 21.4302 14.3395 21.4062 14.0644L20.9081 14.108ZM19.6752 14.2159L19.6316 13.7178C19.3574 13.7418 19.1541 13.9829 19.1769 14.2573L19.6752 14.2159ZM3.64793 15.6181L3.14983 15.6617C3.1739 15.9367 3.41642 16.1402 3.69151 16.1162L3.64793 15.6181ZM4.8808 15.5102L5.37906 15.4685C5.36797 15.336 5.30458 15.2134 5.20291 15.1278C5.10124 15.0422 4.96965 15.0005 4.83722 15.0121L4.8808 15.5102ZM13.4675 14.2571C13.1924 14.2811 12.9889 14.5237 13.013 14.7987C13.0371 15.0738 13.2796 15.2773 13.5547 15.2533L13.5111 14.7552L13.4675 14.2571ZM17.2533 14.9297C17.5284 14.9056 17.7319 14.6631 17.7078 14.388C17.6837 14.1129 17.4412 13.9094 17.1661 13.9335L17.2097 14.4316L17.2533 14.9297ZM7.3032 14.7964C7.02811 14.8205 6.82461 15.063 6.84868 15.3381C6.87274 15.6132 7.11526 15.8166 7.39035 15.7926L7.34677 15.2945L7.3032 14.7964ZM11.089 15.469C11.364 15.4449 11.5675 15.2024 11.5435 14.9273C11.5194 14.6522 11.2769 14.4487 11.0018 14.4728L11.0454 14.9709L11.089 15.469ZM2.84627 20.6573L2.80269 20.1592L2.0802 20.2224L2.39624 20.8752L2.84627 20.6573ZM12.3856 16.0958L12.5694 15.6308C12.423 15.5729 12.258 15.5874 12.1239 15.6698L12.3856 16.0958ZM22.5722 18.9315L23.0517 19.0729L23.2592 18.3695L22.5286 18.4334L22.5722 18.9315ZM13.3758 26.3102L13.0984 26.7262L13.3758 26.9111L13.6531 26.7262L13.3758 26.3102ZM25.398 25.4264C25.5933 25.6216 25.9098 25.6216 26.1051 25.4264C26.3004 25.2311 26.3004 24.9145 26.1051 24.7193L25.7515 25.0728L25.398 25.4264ZM0.646451 24.7193C0.451186 24.9145 0.451183 25.2311 0.646443 25.4264C0.841703 25.6216 1.15829 25.6216 1.35355 25.4264L1 25.0728L0.646451 24.7193ZM3.47533 28.2856C3.19919 28.2856 2.97533 28.5095 2.97533 28.7856C2.97533 29.0618 3.19919 29.2856 3.47533 29.2856V28.7856V28.2856ZM8.42564 27.5481L8.64925 27.1009L8.42564 26.9891L8.20204 27.1009L8.42564 27.5481ZM18.3263 27.5481L18.5499 27.1009L18.3263 26.9891L18.1027 27.1009L18.3263 27.5481ZM23.2766 29.2856C23.5527 29.2856 23.7766 29.0618 23.7766 28.7856C23.7766 28.5095 23.5527 28.2856 23.2766 28.2856V28.7856V29.2856ZM11.3484 9.97514C11.3725 10.2502 11.615 10.4537 11.8901 10.4297C12.1652 10.4056 12.3687 10.1631 12.3446 9.88808L11.8465 9.93161L11.3484 9.97514ZM7.11807 12.8299L7.16165 13.328L7.65718 13.2846L7.61639 12.7889L7.11807 12.8299ZM16.9871 11.9664L16.4889 12.0087L16.5312 12.5082L17.0307 12.4645L16.9871 11.9664ZM4.75078 19.9503C4.77382 20.2255 5.01558 20.4299 5.29076 20.4068C5.56594 20.3838 5.77034 20.142 5.7473 19.8669L5.24904 19.9086L4.75078 19.9503ZM19.5415 18.6444C19.5644 18.9196 19.806 19.1241 20.0812 19.1012C20.3564 19.0784 20.5609 18.8367 20.5381 18.5616L20.0398 18.603L19.5415 18.6444ZM3.68372 23.5344C3.80405 23.7829 4.10308 23.8869 4.35163 23.7665C4.60017 23.6462 4.70411 23.3472 4.58377 23.0986L4.13374 23.3165L3.68372 23.5344ZM20.8398 23.0382C20.7616 23.3031 20.913 23.5811 21.1779 23.6592C21.4428 23.7373 21.7208 23.5859 21.7989 23.3211L21.3193 23.1796L20.8398 23.0382ZM6.91507 10.363L6.95865 10.8611L16.8216 9.99826L16.778 9.50016L16.7344 9.00207L6.87149 9.86496L6.91507 10.363ZM11.4153 5.00003L11.2315 5.46503L13.8051 6.48217L13.9889 6.01717L14.1727 5.55217L11.5991 4.53503L11.4153 5.00003ZM11.631 7.46577L12.1291 7.42219L11.9134 4.95645L11.4153 5.00003L10.9172 5.04361L11.1329 7.50934L11.631 7.46577ZM13.9889 6.01717L13.7272 5.59115L11.3693 7.03974L11.631 7.46577L11.8928 7.89179L14.2507 6.4432L13.9889 6.01717ZM19.783 15.4488L19.8266 15.9469L23.5252 15.6234L23.4816 15.1253L23.438 14.6272L19.7394 14.9507L19.783 15.4488ZM24.9143 13.1363L25.208 13.541L28.1283 11.4221L27.8347 11.0174L27.5411 10.6127L24.6207 12.7317L24.9143 13.1363ZM25.6925 14.9316L25.7361 15.4297L31.284 14.9443L31.2404 14.4462L31.1969 13.9481L25.649 14.4335L25.6925 14.9316ZM25.2382 16.8349L25.0936 17.3136L28.2837 18.2768L28.4282 17.7981L28.5727 17.3195L25.3827 16.3563L25.2382 16.8349ZM20.6924 11.6423L20.1943 11.6859L20.41 14.1516L20.9081 14.108L21.4062 14.0644L21.1905 11.5987L20.6924 11.6423ZM20.9081 14.108L20.8645 13.6099L19.6316 13.7178L19.6752 14.2159L19.7188 14.714L20.9517 14.6061L20.9081 14.108ZM3.64793 15.6181L4.14603 15.5745L3.93031 13.1088L3.43221 13.1523L2.93411 13.1959L3.14983 15.6617L3.64793 15.6181ZM4.8808 15.5102L4.83722 15.0121L3.60435 15.12L3.64793 15.6181L3.69151 16.1162L4.92438 16.0083L4.8808 15.5102ZM13.5111 14.7552L13.5547 15.2533L17.2533 14.9297L17.2097 14.4316L17.1661 13.9335L13.4675 14.2571L13.5111 14.7552ZM7.34677 15.2945L7.39035 15.7926L11.089 15.469L11.0454 14.9709L11.0018 14.4728L7.3032 14.7964L7.34677 15.2945ZM2.84627 20.6573L2.88985 21.1554C3.59513 21.0937 4.56579 20.7501 5.57588 20.3123C6.60372 19.8668 7.73268 19.2961 8.77686 18.7363C9.8223 18.1758 10.7892 17.6225 11.4945 17.2097C11.8472 17.0031 12.1349 16.8315 12.3346 16.7114C12.4345 16.6513 12.5124 16.6041 12.5654 16.5718C12.592 16.5557 12.6123 16.5433 12.6261 16.5348C12.633 16.5306 12.6382 16.5274 12.6418 16.5252C12.6435 16.5241 12.6449 16.5233 12.6458 16.5227C12.6463 16.5224 12.6467 16.5222 12.6469 16.5221C12.647 16.522 12.6474 16.5218 12.3856 16.0958C12.1239 15.6698 12.1239 15.6698 12.1239 15.6698C12.124 15.6697 12.1238 15.6698 12.1239 15.6698C12.1237 15.6699 12.1232 15.6702 12.1228 15.6704C12.122 15.6709 12.1208 15.6716 12.1192 15.6726C12.1159 15.6746 12.111 15.6776 12.1044 15.6817C12.0913 15.6897 12.0716 15.7017 12.0457 15.7175C11.994 15.7489 11.9175 15.7953 11.8191 15.8545C11.6224 15.9728 11.3381 16.1424 10.9892 16.3467C10.2911 16.7554 9.33552 17.3021 8.30433 17.855C7.27189 18.4085 6.17012 18.9648 5.17817 19.3948C4.16847 19.8324 3.33027 20.113 2.80269 20.1592L2.84627 20.6573ZM12.3856 16.0958C12.2018 16.5608 12.2019 16.5608 12.202 16.5608C12.2019 16.5607 12.2021 16.5609 12.202 16.5608C12.2023 16.5609 12.203 16.5612 12.2035 16.5614C12.2045 16.5618 12.206 16.5624 12.2079 16.5632C12.2118 16.5647 12.2176 16.567 12.2251 16.5699C12.2401 16.5758 12.2623 16.5845 12.2912 16.5958C12.3491 16.6184 12.434 16.6513 12.5428 16.6932C12.7603 16.7768 13.0734 16.8959 13.4567 17.038C14.2229 17.3221 15.2712 17.699 16.3981 18.0695C17.5236 18.4395 18.7345 18.8054 19.8241 19.0657C20.8949 19.3215 21.9104 19.4913 22.6157 19.4296L22.5722 18.9315L22.5286 18.4334C22.001 18.4795 21.1268 18.3488 20.0564 18.0931C19.0049 17.8419 17.8233 17.4854 16.7104 17.1195C15.5989 16.7541 14.5629 16.3817 13.8044 16.1004C13.4253 15.9598 13.1159 15.8422 12.9016 15.7598C12.7945 15.7186 12.7111 15.6862 12.6547 15.6642C12.6264 15.6532 12.605 15.6448 12.5906 15.6391C12.5835 15.6363 12.5781 15.6342 12.5745 15.6328C12.5727 15.6321 12.5714 15.6316 12.5706 15.6312C12.5701 15.6311 12.5696 15.6308 12.5694 15.6308C12.5695 15.6308 12.5693 15.6307 12.5694 15.6308C12.5694 15.6308 12.5694 15.6308 12.3856 16.0958ZM25.7515 25.0728L26.1051 24.7193C24.1028 22.717 21.751 22.3911 19.4589 22.8822C17.1962 23.367 14.965 24.6498 13.0984 25.8942L13.3758 26.3102L13.6531 26.7262C15.4993 25.4955 17.5996 24.3033 19.6684 23.86C21.7079 23.423 23.6876 23.716 25.398 25.4264L25.7515 25.0728ZM13.3758 26.3102L13.6531 25.8942C11.7866 24.6498 9.55537 23.367 7.29264 22.8822C5.00057 22.3911 2.64877 22.717 0.646451 24.7193L1 25.0728L1.35355 25.4264C3.06396 23.716 5.04368 23.423 7.08313 23.86C9.15192 24.3033 11.2522 25.4954 13.0984 26.7262L13.3758 26.3102ZM3.47533 28.7856C3.47533 29.2856 3.47519 29.2856 3.47533 29.2856C3.47521 29.2856 3.47539 29.2856 3.47533 29.2856C3.47557 29.2856 3.47645 29.2856 3.47677 29.2856C3.4774 29.2856 3.47818 29.2856 3.47911 29.2856C3.48097 29.2856 3.48343 29.2856 3.48648 29.2856C3.49258 29.2855 3.50105 29.2855 3.5118 29.2853C3.5333 29.2849 3.56397 29.2843 3.60318 29.283C3.68159 29.2803 3.79428 29.2752 3.93637 29.265C4.22039 29.2448 4.62286 29.2044 5.1045 29.1241C6.06543 28.964 7.35431 28.6427 8.64925 27.9953L8.42564 27.5481L8.20204 27.1009C7.02182 27.691 5.83554 27.9885 4.94011 28.1378C4.49357 28.2122 4.12255 28.2492 3.86513 28.2676C3.7365 28.2768 3.63648 28.2813 3.56986 28.2835C3.53656 28.2846 3.51163 28.2852 3.49567 28.2854C3.48769 28.2855 3.48196 28.2856 3.47854 28.2856C3.47683 28.2856 3.47587 28.2856 3.47533 28.2856C3.4753 28.2856 3.47506 28.2856 3.47533 28.2856C3.47543 28.2856 3.47533 28.2856 3.47533 28.7856ZM8.42564 27.5481L8.20204 27.9953C9.49697 28.6427 10.7859 28.964 11.7468 29.1241C12.2284 29.2044 12.6309 29.2448 12.9149 29.265C13.057 29.2752 13.1697 29.2803 13.2481 29.283C13.2873 29.2843 13.318 29.2849 13.3395 29.2853C13.3502 29.2855 13.3587 29.2855 13.3648 29.2856C13.3679 29.2856 13.3703 29.2856 13.3722 29.2856C13.3731 29.2856 13.3739 29.2856 13.3745 29.2856C13.3743 29.2856 13.3748 29.2856 13.3745 29.2856C13.3747 29.2856 13.3759 29.2856 13.376 29.2856C13.3761 29.2856 13.376 29.2856 13.376 28.7856C13.376 28.2856 13.3761 28.2856 13.3762 28.2856C13.3757 28.2856 13.3745 28.2856 13.3727 28.2856C13.3693 28.2856 13.3636 28.2855 13.3556 28.2854C13.3397 28.2852 13.3147 28.2846 13.2814 28.2835C13.2148 28.2813 13.1148 28.2768 12.9862 28.2676C12.7287 28.2492 12.3577 28.2122 11.9112 28.1378C11.0157 27.9885 9.82947 27.691 8.64925 27.1009L8.42564 27.5481ZM13.376 28.7856C13.376 29.2856 13.3761 29.2856 13.376 29.2856C13.3758 29.2856 13.3761 29.2856 13.376 29.2856C13.3762 29.2856 13.3771 29.2856 13.3774 29.2856C13.378 29.2856 13.3788 29.2856 13.3797 29.2856C13.3816 29.2856 13.384 29.2856 13.3871 29.2856C13.3932 29.2855 13.4017 29.2855 13.4124 29.2853C13.4339 29.2849 13.4646 29.2843 13.5038 29.283C13.5822 29.2803 13.6949 29.2752 13.837 29.265C14.121 29.2448 14.5235 29.2044 15.0051 29.1241C15.9661 28.964 17.2549 28.6427 18.5499 27.9953L18.3263 27.5481L18.1027 27.1009C16.9224 27.691 15.7362 27.9885 14.8407 28.1378C14.3942 28.2122 14.0232 28.2492 13.7657 28.2676C13.6371 28.2768 13.5371 28.2813 13.4705 28.2835C13.4372 28.2846 13.4122 28.2852 13.3963 28.2854C13.3883 28.2855 13.3826 28.2856 13.3792 28.2856C13.3775 28.2856 13.3767 28.2856 13.3762 28.2856C13.3761 28.2856 13.376 28.2856 13.376 28.7856ZM18.3263 27.5481L18.1027 27.9953C19.3976 28.6427 20.6865 28.964 21.6474 29.1241C22.129 29.2044 22.5315 29.2448 22.8155 29.265C22.9576 29.2752 23.0703 29.2803 23.1487 29.283C23.1879 29.2843 23.2186 29.2849 23.2401 29.2853C23.2509 29.2855 23.2593 29.2855 23.2654 29.2856C23.2685 29.2856 23.2709 29.2856 23.2728 29.2856C23.2737 29.2856 23.2745 29.2856 23.2751 29.2856C23.2748 29.2856 23.2754 29.2856 23.2751 29.2856C23.2752 29.2856 23.2765 29.2856 23.2766 29.2856C23.2767 29.2856 23.2766 29.2856 23.2766 28.7856C23.2766 28.2856 23.2765 28.2856 23.2766 28.2856C23.2761 28.2856 23.2751 28.2856 23.2734 28.2856C23.2699 28.2856 23.2642 28.2855 23.2562 28.2854C23.2403 28.2852 23.2153 28.2846 23.182 28.2835C23.1154 28.2813 23.0154 28.2768 22.8868 28.2676C22.6293 28.2492 22.2583 28.2122 21.8118 28.1378C20.9164 27.9885 19.7301 27.691 18.5499 27.1009L18.3263 27.5481ZM11.8465 9.93161L12.3446 9.88808L12.1291 7.42219L11.631 7.46577L11.1329 7.50934L11.3484 9.97514L11.8465 9.93161ZM7.11807 12.8299L7.61639 12.7889L7.41339 10.322L6.91507 10.363L6.41675 10.404L6.61975 12.8709L7.11807 12.8299ZM16.778 9.50016L16.2798 9.5424L16.4889 12.0087L16.9871 11.9664L17.4853 11.9242L17.2762 9.45793L16.778 9.50016ZM5.24904 19.9086L5.7473 19.8669L5.37906 15.4685L4.8808 15.5102L4.38254 15.5519L4.75078 19.9503L5.24904 19.9086ZM19.6752 14.2159L19.1769 14.2573L19.5415 18.6444L20.0398 18.603L20.5381 18.5616L20.1735 14.1745L19.6752 14.2159ZM4.13374 23.3165L4.58377 23.0986L3.2963 20.4394L2.84627 20.6573L2.39624 20.8752L3.68372 23.5344L4.13374 23.3165ZM22.5722 18.9315L22.0926 18.79L20.8398 23.0382L21.3193 23.1796L21.7989 23.3211L23.0517 19.0729L22.5722 18.9315ZM7.11807 12.8299L7.07449 12.3318L3.38863 12.6542L3.43221 13.1523L3.47579 13.6504L7.16165 13.328L7.11807 12.8299ZM16.9871 11.9664L17.0307 12.4645L20.7359 12.1404L20.6924 11.6423L20.6488 11.1442L16.9435 11.4683L16.9871 11.9664Z" fill="white"/>
</g>
<defs>
<clipPath id="clip0_493_90">
<rect width="32" height="32" fill="white"/>
</clipPath>
</defs>
</svg>
