<svg width="36" height="36" viewBox="0 0 36 36" fill="none" xmlns="http://www.w3.org/2000/svg">
<path d="M5.84082 8.25C12.8408 1.25 22.8408 1.25 29.8408 8.25C28.59 9.50086 27.4685 10.6204 26.4648 11.624L25.0508 10.21C25.6377 9.62303 26.2651 8.99667 26.9346 8.32715C21.3772 3.89022 14.3033 3.88991 8.74609 8.32715L10.3799 9.96094L8.96582 11.375L5.84082 8.25Z" fill="#ACACAC"/>
<path d="M23.0898 14.999C20.6635 17.4251 17.8408 20.25 17.8408 20.25L14.4658 16.875L15.8799 15.4609L17.8408 17.4219C17.8116 17.4511 17.8689 17.3938 17.8408 17.4219C18.6112 16.6515 19.8623 15.3987 21.627 13.6338L23.0898 14.999Z" fill="#06BF00"/>
<path d="M26.2514 18C26.6843 18 27.0574 17.8474 27.3708 17.5421C27.6841 17.2365 27.8408 16.8731 27.8408 16.4516C27.8408 16.0302 27.6841 15.6667 27.3708 15.3612C27.0574 15.0559 26.6843 14.9033 26.2514 14.9033C25.8188 14.9033 25.4458 15.0559 25.1325 15.3612C24.8188 15.6667 24.662 16.0302 24.662 16.4516C24.662 16.8731 24.8188 17.2365 25.1325 17.5421C25.4458 17.8474 25.8188 18 26.2514 18ZM22.9403 13.0967C23.3728 13.0967 23.746 12.9441 24.0596 12.6388C24.373 12.3335 24.5297 11.97 24.5297 11.5484C24.5297 11.1269 24.373 10.7636 24.0596 10.4583C23.746 10.1528 23.3728 10 22.9403 10C22.5077 10 22.1346 10.1528 21.8209 10.4583C21.5075 10.7636 21.3508 11.1269 21.3508 11.5484C21.3508 11.97 21.5075 12.3335 21.8209 12.6388C22.1346 12.9441 22.5077 13.0967 22.9403 13.0967ZM10.7546 17.8711H12.8741V15.0322H15.7879V12.9678H12.8741V10.1293H10.7546V12.9678H7.84082V15.0322H10.7546V17.8711Z" fill="#171717"/>
<path d="M9.42285 25.543C9.79771 25.543 10.1378 25.6094 10.4424 25.7422C10.7508 25.8711 11.0167 26.0645 11.2393 26.3223C11.4657 26.5761 11.6397 26.8927 11.7607 27.2715C11.8818 27.6504 11.9424 28.086 11.9424 28.5781V29.0879C11.9424 29.58 11.8818 30.0156 11.7607 30.3945C11.6397 30.7733 11.4657 31.0918 11.2393 31.3496C11.0167 31.6034 10.7528 31.7949 10.4482 31.9238C10.1437 32.0527 9.80552 32.1171 9.43457 32.1172C9.0675 32.1172 8.72941 32.0526 8.4209 31.9238C8.11628 31.795 7.85055 31.6034 7.62402 31.3496C7.39748 31.0918 7.22363 30.7734 7.10254 30.3945C6.98145 30.0156 6.9209 29.5801 6.9209 29.0879V28.5781C6.9209 28.0859 6.98145 27.6504 7.10254 27.2715C7.22363 26.8926 7.39553 26.5761 7.61816 26.3223C7.84469 26.0645 8.11042 25.8711 8.41504 25.7422C8.71965 25.6095 9.05579 25.543 9.42285 25.543ZM15.502 25.543C15.9471 25.543 16.3321 25.6368 16.6562 25.8242C16.9842 26.0078 17.2403 26.2775 17.4238 26.6328C17.6074 26.9882 17.7031 27.4239 17.7109 27.9395H16.4277C16.4199 27.6661 16.3789 27.4375 16.3047 27.2539C16.2305 27.0666 16.1248 26.9258 15.9883 26.832C15.8556 26.7384 15.6873 26.6915 15.4844 26.6914C15.2619 26.6914 15.0781 26.7345 14.9336 26.8203C14.793 26.9023 14.6836 27.0235 14.6055 27.1836C14.5313 27.3437 14.4785 27.5391 14.4473 27.7695C14.4199 27.9961 14.4062 28.2539 14.4062 28.543V29.1172C14.4062 29.4141 14.4199 29.6777 14.4473 29.9082C14.4746 30.1347 14.5254 30.3281 14.5996 30.4883C14.6777 30.6483 14.7891 30.7696 14.9336 30.8516C15.0781 30.9335 15.2639 30.9746 15.4902 30.9746C15.6658 30.9745 15.8224 30.9374 15.959 30.8633C16.0994 30.7891 16.211 30.6737 16.293 30.5176C16.3749 30.3574 16.4199 30.1503 16.4277 29.8965H17.7109C17.7031 30.3456 17.5995 30.7383 17.4004 31.0742C17.2012 31.4061 16.9354 31.6641 16.6035 31.8477C16.2755 32.0273 15.91 32.1171 15.5078 32.1172C15.09 32.1172 14.7245 32.0507 14.4121 31.918C14.1036 31.7813 13.8476 31.5839 13.6445 31.3262C13.4414 31.0684 13.2891 30.7558 13.1875 30.3887C13.0898 30.0176 13.041 29.5938 13.041 29.1172V28.543C13.041 28.0703 13.0898 27.6484 13.1875 27.2773C13.2891 26.9063 13.4414 26.5918 13.6445 26.334C13.8476 26.0763 14.1036 25.8808 14.4121 25.748C14.7206 25.6114 15.0842 25.543 15.502 25.543ZM21.1699 25.543C21.5682 25.543 21.9141 25.6075 22.207 25.7363C22.4999 25.8652 22.7403 26.0587 22.9277 26.3164C23.1191 26.5742 23.2598 26.8926 23.3496 27.2715C23.4434 27.6504 23.4902 28.0859 23.4902 28.5781V29.2637H20.0869C20.0886 29.5673 20.115 29.8252 20.168 30.0371C20.2265 30.2558 20.3126 30.4356 20.4258 30.5762C20.539 30.7128 20.6759 30.8145 20.8359 30.8809C20.9999 30.9433 21.1896 30.9746 21.4043 30.9746C21.7206 30.9746 21.9922 30.9159 22.2188 30.7988C22.4491 30.6778 22.6485 30.5214 22.8164 30.3301L23.4199 31.168C23.3067 31.3203 23.1542 31.4708 22.9629 31.6191C22.7715 31.7636 22.5389 31.8829 22.2656 31.9766C21.9962 32.0702 21.6795 32.1172 21.3164 32.1172C20.9064 32.1171 20.5409 32.0566 20.2207 31.9355C19.9005 31.8105 19.6288 31.6269 19.4062 31.3848C19.1837 31.1387 19.0136 30.8378 18.8965 30.4824C18.7793 30.1231 18.7207 29.707 18.7207 29.2344V28.625C18.7207 28.0899 18.7813 27.6289 18.9023 27.2422C19.0273 26.8517 19.1993 26.5312 19.418 26.2812C19.6366 26.0313 19.8947 25.8457 20.1914 25.7246C20.4921 25.6036 20.8185 25.543 21.1699 25.543ZM5.58789 32H4.2168V26.8145H2.36523V32H1V25.6602H5.58789V32ZM28.9424 26.7969H27.2666V32H25.8955V26.7969H24.2373V25.6602H28.9424V26.7969ZM31.4531 29.6621L33.3574 25.6602H34.6875V32H33.334V28.0039L31.4297 32H30.0996V25.6602H31.4531V29.6621ZM9.42285 26.6914C9.25499 26.6914 9.10051 26.7306 8.95996 26.8086C8.82329 26.8867 8.70408 27.0059 8.60254 27.166C8.50099 27.3222 8.42285 27.5196 8.36816 27.7578C8.31348 27.9922 8.28613 28.2656 8.28613 28.5781V29.0879C8.28613 29.4043 8.31348 29.6816 8.36816 29.9199C8.42285 30.1543 8.50099 30.3496 8.60254 30.5059C8.70408 30.662 8.82524 30.7793 8.96582 30.8574C9.10637 30.9354 9.26281 30.9746 9.43457 30.9746C9.62582 30.9746 9.79208 30.9355 9.93262 30.8574C10.077 30.7793 10.1963 30.662 10.29 30.5059C10.3876 30.3496 10.46 30.1542 10.5068 29.9199C10.5537 29.6817 10.5771 29.4043 10.5771 29.0879V28.5781C10.5771 28.2657 10.5498 27.9922 10.4951 27.7578C10.4404 27.5196 10.3623 27.3222 10.2607 27.166C10.1592 27.006 10.036 26.8867 9.8916 26.8086C9.75108 26.7305 9.59458 26.6915 9.42285 26.6914ZM21.1641 26.6914C20.9884 26.6915 20.8319 26.7247 20.6953 26.791C20.5587 26.8574 20.4452 26.965 20.3555 27.1133C20.2696 27.2617 20.2031 27.461 20.1562 27.7109C20.1274 27.8625 20.1087 28.0364 20.0977 28.2324H22.1426V28.0859C22.1348 27.7969 22.0996 27.5488 22.0371 27.3418C21.9746 27.1309 21.873 26.9707 21.7324 26.8613C21.5957 26.7482 21.4061 26.6914 21.1641 26.6914Z" fill="#171717"/>
</svg>
