<svg xmlns="http://www.w3.org/2000/svg" width="40" height="40" viewBox="0 0 40 40" fill="none"><style>
@keyframes a0_t { 0% { transform: translate(-2px,0px); animation-timing-function: cubic-bezier(0,0,.6,1); } 50% { transform: translate(1px,0px); animation-timing-function: cubic-bezier(.4,0,1,1); } 100% { transform: translate(-2px,0px); } }
@keyframes a1_t { 0% { transform: translate(2px,0px); animation-timing-function: cubic-bezier(0,0,.6,1); } 50% { transform: translate(-1px,0px); animation-timing-function: cubic-bezier(.4,0,1,1); } 100% { transform: translate(2px,0px); } }
</style><path d="M8.6 31.7c-1.2 0-2.1-0.4-2.7-1.2c-0.7-0.8-0.9-1.9-0.8-3.2l2-13.5c.2-1.5 .9-2.8 2.1-3.9c1.2-1 2.5-1.6 4-1.6h17.6c1.5 0 2.9 .6 4.1 1.6c1.1 1.1 1.8 2.4 2.1 3.9l1.9 13.5c.1 1.3-0.1 2.4-0.8 3.2c-0.6 .8-1.5 1.2-2.7 1.2c-0.6 0-1.2-0.1-1.6-0.3c-0.5-0.3-0.9-0.5-1.2-0.9l-4.2-4.1h-12.8l-4.2 4.1c-0.3 .4-0.7 .6-1.2 .9c-0.4 .2-1 .3-1.6 .3Zm.7-3l5.1-5.1h15.2l5.1 5.1c.1 .1 .3 .2 .7 .3c.3 0 .5-0.1 .6-0.3c.2-0.2 .2-0.5 .1-0.8l-1.9-13.7c-0.1-0.9-0.5-1.6-1.2-2.2c-0.6-0.6-1.4-0.9-2.2-0.9h-17.6c-0.8 0-1.6 .3-2.2 .9c-0.7 .6-1.1 1.3-1.2 2.2l-1.9 13.7c-0.1 .3-0.1 .6 .1 .8c.1 .2 .3 .3 .6 .3c.2 0 .4-0.1 .7-0.3Zm21.6-7c.4 0 .8-0.2 1.2-0.5c.3-0.4 .5-0.7 .5-1.2c0-0.5-0.2-0.8-0.5-1.2c-0.4-0.3-0.8-0.5-1.2-0.5c-0.5 0-0.9 .2-1.2 .5c-0.3 .4-0.5 .7-0.5 1.2c0 .5 .2 .8 .5 1.2c.3 .3 .7 .5 1.2 .5Zm-3.5-5.3c.5 0 .9-0.2 1.2-0.5c.3-0.3 .5-0.7 .5-1.2c0-0.4-0.2-0.8-0.5-1.2c-0.3-0.3-0.7-0.4-1.2-0.4c-0.4 0-0.8 .1-1.2 .4c-0.3 .4-0.5 .8-0.5 1.2c0 .5 .2 .9 .5 1.2c.4 .3 .8 .5 1.2 .5Zm-12.8 5.1h2.3v-3h3v-2.2l-3-0.1v-3h-2.3v3.1l-3-0.1v2.3h3v3Z" fill="#0ff" transform="translate(-2,0)" style="animation: 2s linear infinite both a0_t;"/><path d="M4.6 31.7c-1.2 0-2.1-0.4-2.7-1.2c-0.7-0.8-0.9-1.9-0.8-3.2l2-13.5c.2-1.5 .9-2.8 2.1-3.9c1.2-1 2.5-1.6 4-1.6h17.6c1.5 0 2.9 .6 4.1 1.6c1.1 1.1 1.8 2.4 2.1 3.9l1.9 13.5c.1 1.3-0.1 2.4-0.8 3.2c-0.6 .8-1.5 1.2-2.7 1.2c-0.6 0-1.2-0.1-1.6-0.3c-0.5-0.3-0.9-0.5-1.2-0.9l-4.2-4.1h-12.8l-4.2 4.1c-0.3 .4-0.7 .6-1.2 .9c-0.4 .2-1 .3-1.6 .3Zm.7-3l5.1-5.1h15.2l5.1 5.1c.1 .1 .3 .2 .7 .3c.3 0 .5-0.1 .6-0.3c.2-0.2 .2-0.5 .1-0.8l-1.9-13.7c-0.1-0.9-0.5-1.6-1.2-2.2c-0.6-0.6-1.4-0.9-2.2-0.9h-17.6c-0.8 0-1.6 .3-2.2 .9c-0.7 .6-1.1 1.3-1.2 2.2l-1.9 13.7c-0.1 .3-0.1 .6 .1 .8c.1 .2 .3 .3 .6 .3c.2 0 .4-0.1 .7-0.3Zm21.6-7c.4 0 .8-0.2 1.2-0.5c.3-0.4 .5-0.7 .5-1.2c0-0.5-0.2-0.8-0.5-1.2c-0.4-0.3-0.8-0.5-1.2-0.5c-0.5 0-0.9 .2-1.2 .5c-0.3 .4-0.5 .7-0.5 1.2c0 .5 .2 .8 .5 1.2c.3 .3 .7 .5 1.2 .5Zm-3.5-5.3c.5 0 .9-0.2 1.2-0.5c.3-0.3 .5-0.7 .5-1.2c0-0.4-0.2-0.8-0.5-1.2c-0.3-0.3-0.7-0.4-1.2-0.4c-0.4 0-0.8 .1-1.2 .4c-0.3 .4-0.5 .8-0.5 1.2c0 .5 .2 .9 .5 1.2c.4 .3 .8 .5 1.2 .5Zm-12.8 5.1h2.3v-3h3v-2.2l-3-0.1v-3h-2.3v3.1l-3-0.1v2.3h3v3Z" fill="red" transform="translate(2,0)" style="animation: 2s linear infinite both a1_t;"/><path d="M6.6 31.7c-1.2 0-2.1-0.4-2.7-1.2c-0.7-0.8-0.9-1.9-0.8-3.2l2-13.5c.2-1.5 .9-2.8 2.1-3.9c1.2-1 2.5-1.6 4-1.6h17.6c1.5 0 2.9 .6 4.1 1.6c1.1 1.1 1.8 2.4 2.1 3.9l1.9 13.5c.1 1.3-0.1 2.4-0.8 3.2c-0.6 .8-1.5 1.2-2.7 1.2c-0.6 0-1.2-0.1-1.6-0.3c-0.5-0.3-0.9-0.5-1.2-0.9l-4.2-4.1h-12.8l-4.2 4.1c-0.3 .4-0.7 .6-1.2 .9c-0.4 .2-1 .3-1.6 .3Z" fill="#fff" stroke="#000"/><path d="M28.9 21.7c.4 0 .8-0.2 1.2-0.5c.3-0.4 .5-0.7 .5-1.2c0-0.5-0.2-0.8-0.5-1.2c-0.4-0.3-0.8-0.5-1.2-0.5c-0.5 0-0.9 .2-1.2 .5c-0.3 .4-0.5 .7-0.5 1.2c0 .5 .2 .8 .5 1.2c.3 .3 .7 .5 1.2 .5Zm-3.5-5.3c.5 0 .9-0.2 1.2-0.5c.3-0.3 .5-0.7 .5-1.2c0-0.4-0.2-0.8-0.5-1.2c-0.3-0.3-0.7-0.4-1.2-0.4c-0.4 0-0.8 .1-1.2 .4c-0.3 .4-0.5 .8-0.5 1.2c0 .5 .2 .9 .5 1.2c.4 .3 .8 .5 1.2 .5Zm-12.8 5.1h2.3v-3h3v-2.2l-3-0.1v-3h-2.3v3.1l-3-0.1v2.3h3v3Z" fill="#000"/></svg>